<svg width="40" height="40" viewBox="0 0 40 40" fill="none" xmlns="http://www.w3.org/2000/svg">
<circle cx="20" cy="20" r="19.6667" fill="white" stroke="#7B7B7B" stroke-width="0.666667"/>
<path fill-rule="evenodd" clip-rule="evenodd" d="M30.6667 20.241C30.6667 19.48 30.597 18.7493 30.4688 18.0469H20.2178V22.1966H26.076C25.8237 23.5377 25.0567 24.6737 23.9041 25.4347V28.126H27.4223C29.4803 26.2583 30.6678 23.5084 30.6678 20.241H30.6667Z" fill="#4285F4"/>
<path fill-rule="evenodd" clip-rule="evenodd" d="M20.2173 30.7286C23.1561 30.7286 25.6202 29.7674 27.4208 28.1292L23.9026 25.4379C22.9275 26.0816 21.6816 26.4616 20.2163 26.4616C17.381 26.4616 14.9815 24.5748 14.1253 22.0391H10.4902V24.8183C12.2816 28.3242 15.9618 30.7286 20.2173 30.7286Z" fill="#34A853"/>
<path fill-rule="evenodd" clip-rule="evenodd" d="M14.1268 22.0398C13.9094 21.396 13.7854 20.7088 13.7854 20.0013C13.7854 19.2939 13.9094 18.6066 14.1268 17.9629V15.1836H10.4907C9.75343 16.6318 9.33301 18.2701 9.33301 20.0013C9.33301 21.7326 9.75343 23.3708 10.4907 24.8191L14.1268 22.0398Z" fill="#FBBC05"/>
<path fill-rule="evenodd" clip-rule="evenodd" d="M20.2173 13.5365C21.8149 13.5365 23.2505 14.0782 24.3784 15.1404L27.5008 12.0629C25.6151 10.3327 23.151 9.26953 20.2173 9.26953C15.9618 9.26953 12.2816 11.6738 10.4902 15.1798L14.1263 17.959C14.9826 15.4233 17.382 13.5365 20.2173 13.5365Z" fill="#EA4335"/>
</svg>
