<svg width="38" height="38" viewBox="0 0 38 38" fill="none" xmlns="http://www.w3.org/2000/svg">
<path d="M19.0018 4.75C28.1836 4.75 35.627 10.552 35.627 17.7091C35.627 24.8663 28.1836 30.6682 19.0018 30.6682C18.0705 30.6682 17.1576 30.6074 16.2679 30.4928L9.28841 35.058C8.49453 35.4782 8.21424 35.4315 8.54108 34.4041L9.95278 28.5812C5.39279 26.2705 2.37695 22.2647 2.37695 17.7091C2.37695 10.552 9.82014 4.75 19.0018 4.75ZM28.3547 17.5102L30.6827 15.2573C30.9793 14.9702 30.987 14.4973 30.7001 14.2006C30.4132 13.9044 29.9403 13.8964 29.6434 14.1833L26.5904 17.1378V14.6969C26.5904 14.2844 26.256 13.9498 25.8433 13.9498C25.4308 13.9498 25.0961 14.2844 25.0961 14.6969V18.7456C25.0679 18.8611 25.0685 18.9808 25.0961 19.0967V21.375C25.0961 21.7876 25.4308 22.1222 25.8433 22.1222C26.256 22.1222 26.5904 21.7876 26.5904 21.375V19.2174L27.2675 18.5624L29.5281 21.7811C29.6737 21.9882 29.9053 22.0991 30.1403 22.0991C30.2888 22.0991 30.4386 22.0547 30.5692 21.9631C30.9069 21.726 30.9883 21.2599 30.7511 20.9222L28.3547 17.5102ZM23.6717 20.5578H21.3602V14.7203C21.3602 14.3078 21.0256 13.9731 20.6129 13.9731C20.2004 13.9731 19.866 14.3078 19.866 14.7203V21.3049C19.866 21.7176 20.2004 22.052 20.6129 22.052H23.6717C24.0845 22.052 24.4189 21.7176 24.4189 21.3049C24.4189 20.8924 24.0845 20.5578 23.6717 20.5578ZM14.3979 18.8298L15.5 16.1261L16.509 18.8298H14.3979ZM18.3922 19.602C18.3926 19.5934 18.3948 19.5857 18.3948 19.5771C18.3948 19.3808 18.3175 19.2038 18.1939 19.0705L16.5386 14.636C16.3828 14.1928 15.9929 13.8987 15.545 13.8863C15.1046 13.8744 14.6948 14.1498 14.5109 14.5931L11.8809 21.0463C11.7253 21.4284 11.9088 21.8646 12.2909 22.0204C12.6731 22.1762 13.1091 21.9925 13.2648 21.6103L13.7889 20.3243H17.0667L17.539 21.5897C17.6512 21.8902 17.9361 22.0758 18.2393 22.0756C18.3261 22.0756 18.4143 22.0604 18.5004 22.0283C18.887 21.8842 19.0834 21.4537 18.939 21.0669L18.3922 19.602ZM13.1333 14.7281C13.1333 14.3155 12.7987 13.9809 12.3862 13.9809H7.24925C6.83652 13.9809 6.50192 14.3155 6.50192 14.7281C6.50192 15.1406 6.83652 15.4752 7.24925 15.4752H9.08595V21.3907C9.08595 21.8033 9.42055 22.1377 9.83309 22.1377C10.2458 22.1377 10.5804 21.8033 10.5804 21.3907V15.4752H12.3862C12.7987 15.4752 13.1333 15.1406 13.1333 14.7281Z" fill="#3D1D1E"/>
</svg>
