<svg width="40" height="40" viewBox="0 0 40 40" fill="none" xmlns="http://www.w3.org/2000/svg">
<circle cx="20" cy="20" r="20" fill="#F5D400"/>
<path d="M20.5782 10.166C21.9904 10.166 23.3223 10.3826 24.574 10.8159C25.8257 11.2492 26.9169 11.8349 27.8477 12.5731C28.7784 13.3112 29.5086 14.1778 30.0381 15.1727C30.5837 16.1677 30.8565 17.2268 30.8565 18.3501C30.8565 19.4894 30.5837 20.5566 30.0381 21.5515C29.5086 22.5304 28.7784 23.397 27.8477 24.1512C26.9169 24.8894 25.8257 25.4751 24.574 25.9084C23.3223 26.3256 21.9904 26.5342 20.5782 26.5342C20.2412 26.5342 19.9123 26.5262 19.5913 26.5101C19.2704 26.478 18.9575 26.4379 18.6526 26.3898L14.1994 29.2302L14.9697 25.2103C14.2797 24.8412 13.6458 24.416 13.0681 23.9345C12.4904 23.4371 11.9929 22.8995 11.5757 22.3218C11.1745 21.728 10.8616 21.1022 10.6369 20.4443C10.4123 19.7703 10.2999 19.0722 10.2999 18.3501C10.2999 17.2268 10.5647 16.1677 11.0943 15.1727C11.6399 14.1778 12.3781 13.3112 13.3088 12.5731C14.2395 11.8349 15.3308 11.2492 16.5825 10.8159C17.8341 10.3826 19.1661 10.166 20.5782 10.166Z" fill="black"/>
</svg>
