<svg width="32" height="32" viewBox="0 0 32 32" fill="none" xmlns="http://www.w3.org/2000/svg">
<path d="M26.6481 5.34379C20.1863 -1.11794 10.1031 -1.71203 2.94965 3.52083C2.78688 3.6429 2.7706 3.88705 2.90895 4.03354L4.55287 5.67745C4.66681 5.79139 4.65866 5.97857 4.52845 6.08436C4.08085 6.43431 3.64139 6.80866 3.23448 7.22371C1.84284 8.61534 0.776747 10.2186 0.0361708 11.9195C-0.037073 12.0822 0.00361403 12.2775 0.133825 12.4077L1.98933 14.2633C2.13582 14.4097 2.17651 14.6213 2.10327 14.8085C0.524457 18.9834 1.41152 23.8745 4.7726 27.2274C8.13367 30.5803 13.0247 31.4755 17.1915 29.8967C17.3787 29.8235 17.5984 29.8642 17.7368 30.0107L19.5923 31.8662C19.7225 31.9964 19.9178 32.0371 20.0805 31.9638C21.7896 31.2233 23.3847 30.1571 24.7763 28.7655C25.1913 28.3505 25.5657 27.9191 25.9156 27.4715C26.0133 27.3413 26.2086 27.3332 26.3226 27.4471L27.9665 29.091C28.1129 29.2375 28.3571 29.2213 28.4792 29.0504C33.712 21.8969 33.1179 11.8137 26.6562 5.35193L26.6481 5.34379ZM24.1903 24.9243C24.1171 25.0464 23.9381 25.0626 23.8404 24.965L22.8557 23.9803C22.7255 23.85 22.5057 23.8663 22.3999 24.021C22.0744 24.4686 21.7163 24.8999 21.3094 25.3068C19.8608 26.7554 18.0867 27.6831 16.2149 28.09C16.0033 28.1389 15.7754 28.0656 15.6208 27.911L14.628 26.9181C14.5303 26.8205 14.392 26.7798 14.2536 26.7961C11.8366 27.1704 9.28116 26.4299 7.41751 24.5662C5.55386 22.7026 4.81329 20.1472 5.18765 17.7301C5.21207 17.5918 5.16323 17.4534 5.06557 17.3558L4.07271 16.3629C3.91808 16.2083 3.84484 15.9804 3.89367 15.7688C4.30058 13.9052 5.22833 12.131 6.67693 10.6743C7.08384 10.2674 7.50703 9.90932 7.96277 9.58379C8.11739 9.47799 8.13367 9.25826 8.00346 9.12805L7.01875 8.14333C6.91295 8.03753 6.93735 7.86663 7.05943 7.79339C11.861 4.74156 18.2901 5.31124 22.4813 9.49427C26.6725 13.6773 27.234 20.1146 24.1822 24.9162L24.1903 24.9243Z" fill="url(#paint0_linear_268_13407)"/>
<defs>
<linearGradient id="paint0_linear_268_13407" x1="-1.04621" y1="-10.2246" x2="30.2126" y2="38.9708" gradientUnits="userSpaceOnUse">
<stop stop-color="#FFD100"/>
<stop offset="1" stop-color="#FF3400"/>
</linearGradient>
</defs>
</svg>
