<svg width="11" height="12" viewBox="0 0 11 12" fill="none" xmlns="http://www.w3.org/2000/svg">
<path d="M6.12988 10.125H10.4951V11.3701H0.504883V10.125H4.87012V8.87988H1.12012V0.120117H7.375V2.625H9.87988V8.87988H6.12988V10.125ZM7.375 3.87012V5.12988H8.62012V3.87012H7.375ZM7.375 6.375V7.62012H8.62012V6.375H7.375ZM3.625 7.62012V6.375H2.37988V7.62012H3.625ZM3.625 5.12988V3.87012H2.37988V5.12988H3.625ZM3.625 2.625V1.37988H2.37988V2.625H3.625ZM4.87012 1.37988V2.625H6.12988V1.37988H4.87012ZM4.87012 3.87012V5.12988H6.12988V3.87012H4.87012ZM4.87012 6.375V7.62012H6.12988V6.375H4.87012Z" fill="#161616"/>
</svg>
