<svg width="30" height="30" viewBox="0 0 30 30" fill="none" xmlns="http://www.w3.org/2000/svg">
<rect x="0.25" y="0.25" width="29.5" height="29.5" rx="14.75" fill="white"/>
<rect x="0.25" y="0.25" width="29.5" height="29.5" rx="14.75" stroke="#E2E2E2" stroke-width="0.5"/>
<g clip-path="url(#clip0_3356_22933)">
<path d="M15 12.248C11.6867 12.248 9 14.936 9 18.3297C9 23.0186 15.0169 25.5065 15 25.4998C14.9838 25.5065 21 23.0187 21 18.3297C21 14.9381 18.3133 12.248 15 12.248ZM15 20.7922C14.5507 20.7919 14.1115 20.6554 13.738 20.3997C13.3646 20.1441 13.0735 19.7809 12.9018 19.3561C12.73 18.9312 12.6852 18.4638 12.773 18.0129C12.8608 17.562 13.0773 17.1478 13.3952 16.8228C13.713 16.4978 14.1178 16.2765 14.5586 16.1869C14.9993 16.0973 15.4561 16.1434 15.8712 16.3194C16.2863 16.4955 16.641 16.7935 16.8906 17.1758C17.1402 17.5581 17.2735 18.0076 17.2734 18.4673C17.2741 18.7731 17.2158 19.0761 17.1018 19.3588C16.9879 19.6415 16.8205 19.8984 16.6093 20.1147C16.398 20.3311 16.1472 20.5026 15.871 20.6196C15.5949 20.7365 15.2989 20.7965 15 20.7962V20.7922Z" fill="#FF6F0F"/>
<path d="M16.3499 4.5C14.9499 4.5 13.9745 5.50155 13.8217 6.68393C11.9545 6.15656 10.4922 7.6083 10.4922 9.20431C10.4922 10.426 11.3131 11.4135 12.4068 11.7341C13.2894 11.9921 14.8785 11.7999 14.8785 11.7999C14.87 11.4049 15.2255 10.9713 15.774 10.5762C17.3339 9.4544 18.553 8.92506 18.7409 7.39483C18.9379 5.79351 17.7765 4.5 16.3499 4.5Z" fill="#00A05B"/>
</g>
<defs>
<clipPath id="clip0_3356_22933">
<rect width="12" height="21" fill="white" transform="translate(9 4.5)"/>
</clipPath>
</defs>
</svg>
