<svg width="202" height="38" viewBox="0 0 202 38" fill="none" xmlns="http://www.w3.org/2000/svg">
<path d="M30.1676 6.67876C22.8524 -0.792619 11.4375 -1.47953 3.33922 4.57096C3.15496 4.71211 3.13653 4.9944 3.29315 5.16378L5.15419 7.06456C5.28317 7.19629 5.27394 7.41272 5.12654 7.53505C4.61982 7.93967 4.12232 8.37252 3.66167 8.85242C2.08624 10.4615 0.879335 12.3152 0.040948 14.2819C-0.0419693 14.4701 0.00409135 14.6959 0.1515 14.8465L2.25207 16.9919C2.41791 17.1613 2.46397 17.4059 2.38105 17.6223C0.593724 22.4496 1.59794 28.1048 5.40293 31.9817C9.20791 35.8585 14.745 36.8936 19.462 35.0681C19.6739 34.9834 19.9227 35.0305 20.0793 35.1998L22.1799 37.3453C22.3273 37.4958 22.5484 37.5429 22.7327 37.4582C24.6674 36.6019 26.4732 35.3692 28.0486 33.7601C28.5184 33.2802 28.9423 32.7815 29.3384 32.264C29.449 32.1134 29.6701 32.104 29.7991 32.2357L31.6601 34.1365C31.8259 34.3059 32.1023 34.2871 32.2405 34.0895C38.1645 25.8183 37.4919 14.1595 30.1768 6.68816L30.1676 6.67876ZM27.3852 29.3187C27.3023 29.4599 27.0996 29.4787 26.9891 29.3658L25.8743 28.2272C25.7269 28.0766 25.4781 28.0954 25.3584 28.2742C24.9899 28.7918 24.5845 29.2905 24.1238 29.761C22.4839 31.4359 20.4755 32.5086 18.3565 32.9791C18.1169 33.0356 17.859 32.9509 17.6839 32.7721L16.5599 31.6241C16.4494 31.5112 16.2927 31.4641 16.1361 31.483C13.3999 31.9158 10.507 31.0595 8.39717 28.9047C6.28738 26.7498 5.449 23.7952 5.8728 21.0005C5.90044 20.8405 5.84516 20.6805 5.7346 20.5676L4.61061 19.4196C4.43556 19.2408 4.35264 18.9774 4.40792 18.7327C4.86857 16.5779 5.91886 14.5265 7.55878 12.8422C8.01943 12.3717 8.49851 11.9576 9.01444 11.5813C9.18949 11.4589 9.20792 11.2049 9.06051 11.0543L7.94574 9.91572C7.82597 9.7934 7.8536 9.59579 7.99179 9.5111C13.4275 5.98243 20.7058 6.64112 25.4505 11.4777C30.1952 16.3144 30.8309 23.7575 27.376 29.3093L27.3852 29.3187Z" fill="white"/>
<path d="M59.5772 17.6839L59.5588 10.062L55.8552 16.3665H54.9246L51.2302 10.1561V17.6745H49.2402V6.17578H50.9631L55.4314 13.7977L59.826 6.17578H61.5488L61.5672 17.6745H59.5864L59.5772 17.6839Z" fill="white"/>
<path d="M70.9368 12.5364V17.6742H69.0389V16.6109C68.5598 17.3636 67.6201 17.7965 66.3395 17.7965C64.3771 17.7965 63.1426 16.6956 63.1426 15.1712C63.1426 13.6468 64.11 12.5553 66.708 12.5553H68.9283V12.4235C68.9283 11.2285 68.2189 10.5134 66.7909 10.5134C65.8236 10.5134 64.8286 10.8427 64.1837 11.379L63.3913 9.8829C64.3034 9.15835 65.6393 8.80078 67.0305 8.80078C69.5088 8.80078 70.9368 9.99582 70.9368 12.527V12.5364ZM68.9191 14.9359V13.9103H66.8462C65.4827 13.9103 65.1049 14.4372 65.1049 15.0771C65.1049 15.8204 65.713 16.2909 66.7449 16.2909C67.7767 16.2909 68.5782 15.8299 68.9191 14.9265V14.9359Z" fill="white"/>
<path d="M77.8285 8.81055V10.7678C77.6535 10.7395 77.5061 10.7207 77.3587 10.7207C75.8293 10.7207 74.8619 11.6429 74.8619 13.4307V17.6839H72.8535V8.91405H74.7698V10.1938C75.3502 9.27163 76.3913 8.81055 77.8285 8.81055Z" fill="white"/>
<path d="M82.3891 13.9198L80.8873 15.3689V17.6837H78.8789V5.49805H80.8873V12.8565L85.0516 8.91378H87.4654L83.8816 12.593L87.8063 17.6837H85.3649L82.3891 13.9198Z" fill="white"/>
<path d="M96.1533 13.9479H89.4186C89.6581 15.2276 90.7084 16.0463 92.2009 16.0463C93.1683 16.0463 93.9237 15.7358 94.5318 15.0959L95.6097 16.3568C94.8358 17.2884 93.6289 17.7871 92.1548 17.7871C89.2804 17.7871 87.4102 15.8957 87.4102 13.2892C87.4102 10.6827 89.2896 8.80078 91.8508 8.80078C94.412 8.80078 96.1901 10.5886 96.1901 13.3363C96.1901 13.4962 96.1717 13.7409 96.1625 13.9385L96.1533 13.9479ZM89.4002 12.5835H94.2738C94.1172 11.3226 93.1683 10.4475 91.8416 10.4475C90.5149 10.4475 89.5936 11.3038 89.4002 12.5835Z" fill="white"/>
<path d="M102.621 17.2049C102.142 17.6002 101.415 17.7978 100.687 17.7978C98.8073 17.7978 97.7293 16.7815 97.7293 14.8431V10.6275H96.3105V8.98084H97.7293V6.97656H99.7378V8.98084H102.041V10.6275H99.7378V14.7961C99.7378 15.6523 100.152 16.1134 100.926 16.1134C101.341 16.1134 101.746 16.0005 102.05 15.7464L102.612 17.2144L102.621 17.2049Z" fill="white"/>
<path d="M103.357 6.23268C103.357 5.54576 103.91 5 104.647 5C105.384 5 105.937 5.50813 105.937 6.18563C105.937 6.91018 105.403 7.46535 104.647 7.46535C103.892 7.46535 103.357 6.91959 103.357 6.23268ZM103.634 8.91445H105.642V17.6843H103.634V8.91445Z" fill="white"/>
<path d="M116.1 12.6494V17.6742H114.092V12.9128C114.092 11.3508 113.336 10.598 112.046 10.598C110.618 10.598 109.651 11.4826 109.651 13.2422V17.6742H107.643V8.90429H109.559V10.0335C110.213 9.22422 111.263 8.80078 112.516 8.80078C114.571 8.80078 116.109 9.99582 116.109 12.6494H116.1Z" fill="white"/>
<path d="M126.601 8.91405V16.3572C126.601 19.5471 124.98 20.9867 121.967 20.9867C120.355 20.9867 118.77 20.5633 117.784 19.7353L118.687 18.1921C119.443 18.8319 120.668 19.2459 121.856 19.2459C123.754 19.2459 124.593 18.3614 124.593 16.583V16.1219C123.883 16.9123 122.87 17.2887 121.718 17.2887C119.258 17.2887 117.379 15.5761 117.379 13.0355C117.379 10.4949 119.258 8.81055 121.718 8.81055C122.925 8.81055 123.985 9.20576 124.694 10.0809V8.91405H126.61H126.601ZM124.62 13.0355C124.62 11.5582 123.533 10.5513 122.013 10.5513C120.493 10.5513 119.387 11.5582 119.387 13.0355C119.387 14.5128 120.484 15.5479 122.013 15.5479C123.542 15.5479 124.62 14.5317 124.62 13.0355Z" fill="white"/>
<path d="M132.58 6.18555H134.671V15.8776H140.559V17.6842H132.58V6.18555Z" fill="white"/>
<path d="M149.331 13.9479H142.596C142.836 15.2276 143.886 16.0463 145.379 16.0463C146.346 16.0463 147.101 15.7358 147.71 15.0959L148.787 16.3568C148.014 17.2884 146.807 17.7871 145.333 17.7871C142.458 17.7871 140.588 15.8957 140.588 13.2892C140.588 10.6827 142.467 8.80078 145.029 8.80078C147.59 8.80078 149.368 10.5886 149.368 13.3363C149.368 13.4962 149.349 13.7409 149.34 13.9385L149.331 13.9479ZM142.569 12.5835H147.442C147.286 11.3226 146.337 10.4475 145.01 10.4475C143.683 10.4475 142.762 11.3038 142.569 12.5835Z" fill="white"/>
<path d="M158.516 8.91406L154.83 17.6839H152.757L149.072 8.91406H151.164L153.835 15.4162L156.581 8.91406H158.516Z" fill="white"/>
<path d="M166.927 13.9479H160.192C160.432 15.2276 161.482 16.0463 162.974 16.0463C163.942 16.0463 164.697 15.7358 165.305 15.0959L166.383 16.3568C165.609 17.2884 164.402 17.7871 162.928 17.7871C160.054 17.7871 158.184 15.8957 158.184 13.2892C158.184 10.6827 160.063 8.80078 162.624 8.80078C165.185 8.80078 166.964 10.5886 166.964 13.3363C166.964 13.4962 166.945 13.7409 166.936 13.9385L166.927 13.9479ZM160.174 12.5835H165.047C164.891 11.3226 163.942 10.4475 162.615 10.4475C161.288 10.4475 160.367 11.3038 160.174 12.5835Z" fill="white"/>
<path d="M173.209 8.81055V10.7678C173.034 10.7395 172.887 10.7207 172.74 10.7207C171.21 10.7207 170.243 11.6429 170.243 13.4307V17.6839H168.234V8.91405H170.151V10.1938C170.731 9.27163 171.772 8.81055 173.209 8.81055Z" fill="white"/>
<path d="M181.4 12.5364V17.6742H179.502V16.6109C179.023 17.3636 178.083 17.7965 176.802 17.7965C174.84 17.7965 173.605 16.6956 173.605 15.1712C173.605 13.6468 174.573 12.5553 177.171 12.5553H179.391V12.4235C179.391 11.2285 178.682 10.5134 177.254 10.5134C176.286 10.5134 175.291 10.8427 174.647 11.379L173.854 9.8829C174.766 9.15835 176.102 8.80078 177.493 8.80078C179.972 8.80078 181.4 9.99582 181.4 12.527V12.5364ZM179.391 14.9359V13.9103H177.318C175.955 13.9103 175.577 14.4372 175.577 15.0771C175.577 15.8204 176.185 16.2909 177.217 16.2909C178.249 16.2909 179.05 15.8299 179.391 14.9265V14.9359Z" fill="white"/>
<path d="M191.931 8.91405V16.3572C191.931 19.5471 190.31 20.9867 187.297 20.9867C185.685 20.9867 184.1 20.5633 183.114 19.7353L184.017 18.1921C184.773 18.8319 185.998 19.2459 187.186 19.2459C189.084 19.2459 189.923 18.3614 189.923 16.583V16.1219C189.213 16.9123 188.2 17.2887 187.048 17.2887C184.588 17.2887 182.709 15.5761 182.709 13.0355C182.709 10.4949 184.588 8.81055 187.048 8.81055C188.255 8.81055 189.315 9.20576 190.024 10.0809V8.91405H191.94H191.931ZM189.95 13.0355C189.95 11.5582 188.863 10.5513 187.343 10.5513C185.823 10.5513 184.717 11.5582 184.717 13.0355C184.717 14.5128 185.814 15.5479 187.343 15.5479C188.872 15.5479 189.95 14.5317 189.95 13.0355Z" fill="white"/>
<path d="M201.964 13.9479H195.229C195.469 15.2276 196.519 16.0463 198.011 16.0463C198.979 16.0463 199.734 15.7358 200.342 15.0959L201.42 16.3568C200.646 17.2884 199.439 17.7871 197.965 17.7871C195.091 17.7871 193.221 15.8957 193.221 13.2892C193.221 10.6827 195.1 8.80078 197.661 8.80078C200.223 8.80078 202.001 10.5886 202.001 13.3363C202.001 13.4962 201.982 13.7409 201.973 13.9385L201.964 13.9479ZM195.201 12.5835H200.075C199.919 11.3226 198.97 10.4475 197.643 10.4475C196.316 10.4475 195.395 11.3038 195.201 12.5835Z" fill="white"/>
<path d="M53.3644 30.982H49.2285V25.1623H53.3644V30.982ZM50.4336 30.0096H52.1742V26.1348H50.4336V30.0096ZM55.7448 27.6543H57.0094V28.6724H55.7448V33.1246H54.5397V24.3418H55.7448V27.6543Z" fill="white"/>
<path d="M67.6765 27.6543H68.5989V24.5241H69.7147V32.7295H68.5989V28.642H67.3343C67.0963 29.1738 66.7541 29.6753 66.3375 30.1311C65.921 30.587 65.3854 30.9972 64.7456 31.3619L64.0762 30.5262C64.6118 30.2071 65.0581 29.8728 65.4151 29.5081C65.7722 29.1434 66.0549 28.7484 66.2631 28.3077L64.2696 28.5204L64.1357 27.472L66.6053 27.3352C66.6797 27.0313 66.7243 26.6818 66.769 26.302H64.5671V25.3143H67.9592C67.9592 26.226 67.8699 27.0009 67.7063 27.6543H67.6765ZM71.5595 33.1246H70.4288V24.3418H71.5595V33.1246Z" fill="white"/>
<path d="M83.8786 25.9373H80.918V26.6211H83.6256V27.5783H80.918V28.2773C81.766 28.2773 82.4503 28.2621 82.9562 28.2317C83.462 28.2013 83.9678 28.1558 84.4737 28.0646L84.5927 29.0219C84.072 29.1131 83.5364 29.1738 83.0157 29.2042C82.4801 29.2346 81.8106 29.2498 81.0072 29.2498H79.7129V24.9344H83.8786V25.9221V25.9373ZM85.0836 29.9792C85.5299 30.1159 85.8721 30.2983 86.1251 30.5566C86.3631 30.8149 86.4821 31.1036 86.497 31.4531C86.497 31.8026 86.378 32.1065 86.1251 32.3496C85.887 32.5927 85.5299 32.7903 85.0836 32.927C84.6373 33.0638 84.1166 33.1246 83.5066 33.1246C82.8967 33.1246 82.3759 33.0638 81.9296 32.927C81.4833 32.7903 81.1411 32.6079 80.9031 32.3496C80.665 32.0913 80.546 31.8026 80.546 31.4379C80.546 31.0732 80.665 30.7997 80.9031 30.5414C81.1411 30.2983 81.4833 30.1007 81.9296 29.964C82.3759 29.8272 82.8967 29.7664 83.5066 29.7664C84.1166 29.7664 84.6373 29.8272 85.0836 29.964V29.9792ZM82.1974 30.9213C81.8999 31.0428 81.7511 31.21 81.7511 31.4531C81.7511 31.6962 81.8999 31.8786 82.1974 32.0001C82.495 32.1217 82.9264 32.1825 83.5066 32.1825C84.0868 32.1825 84.5183 32.1217 84.8158 32.0001C85.1283 31.8786 85.277 31.6962 85.277 31.4531C85.277 31.21 85.1283 31.0428 84.8307 30.9213C84.5332 30.7997 84.0868 30.7389 83.5066 30.7389C82.9264 30.7389 82.495 30.7997 82.1974 30.9213ZM86.4375 29.6601H85.2324V24.3418H86.4375V29.6601Z" fill="white"/>
<path d="M97.6702 28.5508H95.7808V30.0551C96.2568 30.0551 96.7032 30.0248 97.09 29.9944C97.4917 29.964 97.8934 29.9032 98.3099 29.8272L98.4141 30.8301C97.9082 30.9213 97.4173 30.9972 96.9412 31.0276C96.4651 31.058 95.8998 31.0732 95.2303 31.0732H94.6203V27.5783H96.4949V26.1956H94.6055V25.2231H97.6553V28.5508H97.6702ZM100.036 32.6991H98.905V28.3381H98.0273V27.3504H98.905V24.5089H100.036V32.7143V32.6991ZM101.821 33.1246H100.675V24.3418H101.821V33.1246Z" fill="white"/>
<path d="M116.784 33.1393H115.594V28.4288H114.002V31.0576H109.852V25.01H111.057V27.1373H112.827V25.01H114.002V27.426H115.594V24.3262H116.784V33.1393ZM112.812 30.0699V28.1098H111.042V30.0699H112.812Z" fill="white"/>
<path d="M129.208 28.4592H126.367V30.0699C127.036 30.0699 127.676 30.0395 128.256 29.9939C128.837 29.9484 129.446 29.8724 130.056 29.7812L130.161 30.7689C129.491 30.8905 128.822 30.9664 128.167 31.012C127.498 31.0576 126.754 31.0728 125.891 31.0728H125.117V27.4716H127.974V26.0584H125.117V25.0707H129.208V28.4592ZM131.871 33.1393H130.666V24.3262H131.871V33.1393Z" fill="white"/>
<path d="M143.384 28.171C143.548 28.642 143.786 29.0523 144.113 29.4321C144.44 29.812 144.827 30.1007 145.303 30.2983L144.649 31.2556C144.158 31.0428 143.726 30.7389 143.384 30.3135C143.027 29.9032 142.759 29.417 142.551 28.8699C142.357 29.4777 142.075 29.9944 141.718 30.4502C141.361 30.9061 140.929 31.2404 140.438 31.4683L139.754 30.4958C140.215 30.2831 140.602 29.9792 140.929 29.5841C141.256 29.189 141.495 28.7332 141.673 28.2317C141.837 27.7303 141.926 27.2289 141.926 26.7274V26.1956H140.096V25.1927H144.961V26.1956H143.161V26.7274C143.161 27.2137 143.235 27.6999 143.399 28.1558L143.384 28.171ZM146.999 33.1246H145.779V24.3418H146.999V33.1246Z" fill="white"/>
</svg>
