<svg width="144" height="79" viewBox="0 0 144 79" fill="none" xmlns="http://www.w3.org/2000/svg">
<path d="M85.9603 7.21011C77.249 -1.50815 63.6622 -2.30967 54.0236 4.74931C53.7987 4.91805 53.7847 5.24147 53.9673 5.43834L56.1733 7.64603C56.3278 7.8007 56.3138 8.05381 56.1452 8.19443C55.541 8.67253 54.9509 9.17875 54.4029 9.72716C52.5201 11.6114 51.087 13.7629 50.0894 16.069C49.9911 16.294 50.0473 16.5611 50.2159 16.7299L52.7169 19.2329C52.9136 19.4297 52.9698 19.711 52.8714 19.9641C50.7498 25.5888 51.9441 32.1837 56.4683 36.7116C60.9926 41.2395 67.5823 42.4347 73.2025 40.3114C73.4554 40.2129 73.7504 40.2692 73.9331 40.4661L76.4341 42.969C76.6027 43.1378 76.8697 43.194 77.0945 43.0956C79.3987 42.0972 81.5485 40.6629 83.4312 38.7787C83.9933 38.2162 84.485 37.6397 84.9627 37.035C85.1033 36.8663 85.3562 36.8381 85.5107 37.0069L87.7166 39.2146C87.9134 39.4114 88.2365 39.3833 88.4051 39.1583C95.4585 29.512 94.6576 15.9143 85.9463 7.19605L85.9603 7.21011ZM82.6585 33.618C82.5601 33.7867 82.3213 33.8008 82.1808 33.6743L80.86 32.3525C80.6773 32.1696 80.3963 32.1978 80.2418 32.4087C79.8062 33.0134 79.3144 33.5899 78.7805 34.1383C76.8275 36.0929 74.4389 37.3444 71.9239 37.8928C71.6288 37.9631 71.3338 37.8646 71.123 37.6537L69.7882 36.3179C69.6618 36.1913 69.465 36.1351 69.2824 36.1632C66.0227 36.6694 62.5803 35.671 60.0653 33.154C57.5502 30.6369 56.5526 27.1918 57.0585 23.9295C57.0866 23.7467 57.0304 23.5639 56.9039 23.4233L55.5691 22.0874C55.3583 21.8765 55.26 21.5812 55.3302 21.2859C55.8782 18.7688 57.1287 16.3783 59.0817 14.4238C59.6297 13.8754 60.2058 13.3973 60.8099 12.9614C61.0207 12.8207 61.0488 12.5254 60.8661 12.3426L59.5454 11.0208C59.4049 10.8802 59.433 10.6552 59.6016 10.5427C66.0648 6.42266 74.734 7.19605 80.3823 12.8348C86.0306 18.4876 86.7893 27.1637 82.6725 33.6321L82.6585 33.618Z" fill="url(#paint0_linear_2182_20813)"/>
<path d="M9.69484 65.088V58.0852L6.21032 63.8786H5.33919L1.86872 58.1696V65.0739H0V54.5135H1.61581L5.80286 61.5163L9.91965 54.5135H11.5355V65.0739H9.69484V65.088Z" fill="#0F0F0F"/>
<path d="M20.3447 60.3632V65.0879H18.5603V64.1036C18.1107 64.7926 17.2396 65.1864 16.0312 65.1864C14.1906 65.1864 13.0244 64.1739 13.0244 62.7678C13.0244 61.3616 13.9236 60.3632 16.3684 60.3632H18.4479V60.2367C18.4479 59.1398 17.7875 58.493 16.4387 58.493C15.5395 58.493 14.5981 58.7883 13.9939 59.2945L13.2492 57.9165C14.1063 57.2556 15.3568 56.9181 16.6635 56.9181C18.9818 56.9181 20.3307 58.0149 20.3307 60.3491L20.3447 60.3632ZM18.462 62.5709V61.6288H16.523C15.2444 61.6288 14.8931 62.1069 14.8931 62.6975C14.8931 63.3724 15.4692 63.8224 16.4246 63.8224C17.3801 63.8224 18.1528 63.4005 18.462 62.5709Z" fill="#0F0F0F"/>
<path d="M26.8079 56.9321V58.732C26.6393 58.7039 26.5129 58.6898 26.3724 58.6898C24.9392 58.6898 24.04 59.5335 24.04 61.1788V65.0879H22.1572V57.0306H23.9557V58.2117C24.5037 57.368 25.4731 56.9462 26.822 56.9462L26.8079 56.9321Z" fill="#0F0F0F"/>
<path d="M31.0798 61.6287L29.6748 62.9646V65.0879H27.792V53.8948H29.6748V60.6585L33.5808 57.0305H35.8429L32.4849 60.4053L36.1661 65.0879H33.8759L31.0798 61.6287Z" fill="#0F0F0F"/>
<path d="M43.9912 61.6569H37.6685C37.8933 62.838 38.8769 63.5833 40.2819 63.5833C41.1811 63.5833 41.8977 63.3021 42.4738 62.7115L43.4854 63.8786C42.7689 64.7364 41.6308 65.1864 40.2398 65.1864C37.5421 65.1864 35.7998 63.4427 35.7998 61.0522C35.7998 58.6617 37.5561 56.9321 39.9588 56.9321C42.3614 56.9321 44.0334 58.5773 44.0334 61.0944C44.0334 61.2491 44.0334 61.4741 44.0053 61.6569H43.9912ZM37.6545 60.4054H42.2209C42.0663 59.2382 41.1811 58.4367 39.9447 58.4367C38.7083 58.4367 37.8371 59.2242 37.6545 60.4054Z" fill="#0F0F0F"/>
<path d="M50.0477 64.652C49.5981 65.0176 48.9096 65.2004 48.2352 65.2004C46.4789 65.2004 45.4672 64.2583 45.4672 62.4865V58.6055H44.1465V57.1009H45.4672V55.2588H47.35V57.1009H49.4997V58.6055H47.35V62.4443C47.35 63.2318 47.7434 63.6536 48.46 63.6536C48.8534 63.6536 49.2328 63.5411 49.5138 63.3161L50.0477 64.6661V64.652Z" fill="#0F0F0F"/>
<path d="M50.751 54.5699C50.751 53.9371 51.2708 53.4309 51.9593 53.4309C52.6478 53.4309 53.1677 53.8949 53.1677 54.5137C53.1677 55.1746 52.6759 55.6948 51.9593 55.6948C51.2427 55.6948 50.751 55.2027 50.751 54.5558V54.5699ZM51.0039 57.0307H52.8867V65.0881H51.0039V57.0307Z" fill="#0F0F0F"/>
<path d="M62.6794 60.4616V65.0739H60.7966V60.7007C60.7966 59.2664 60.0941 58.5773 58.8857 58.5773C57.5509 58.5773 56.6376 59.3929 56.6376 61.01V65.0879H54.7549V57.0306H56.5533V58.0711C57.1716 57.3259 58.1551 56.9321 59.3213 56.9321C61.2462 56.9321 62.6794 58.0289 62.6794 60.4616Z" fill="#0F0F0F"/>
<path d="M72.5285 57.0306V63.8645C72.5285 66.7894 71.0111 68.1252 68.1869 68.1252C66.6835 68.1252 65.1801 67.7315 64.2668 66.9722L65.1099 65.552C65.8124 66.1425 66.9645 66.5222 68.0745 66.5222C69.8589 66.5222 70.6317 65.7066 70.6317 64.0755V63.6536C69.9713 64.3708 69.0159 64.7223 67.934 64.7223C65.6297 64.7223 63.8594 63.1474 63.8594 60.8132C63.8594 58.4789 65.6157 56.9321 67.934 56.9321C69.0721 56.9321 70.0556 57.2977 70.7301 58.0992V57.0306H72.5285ZM70.6739 60.8132C70.6739 59.4492 69.6482 58.5352 68.2291 58.5352C66.81 58.5352 65.7702 59.4632 65.7702 60.8132C65.7702 62.1631 66.7959 63.1193 68.2291 63.1193C69.6622 63.1193 70.6739 62.1771 70.6739 60.8132Z" fill="#0F0F0F"/>
<path d="M78.1338 54.5276H80.0868V63.4287H85.6087V65.0879H78.1338V54.5276Z" fill="#0F0F0F"/>
<path d="M93.8428 61.6569H87.5201C87.7449 62.838 88.7284 63.5833 90.1335 63.5833C91.0327 63.5833 91.7493 63.3021 92.3254 62.7115L93.337 63.8786C92.6204 64.7364 91.4823 65.1864 90.0913 65.1864C87.3936 65.1864 85.6514 63.4427 85.6514 61.0522C85.6514 58.6617 87.4077 56.9321 89.8103 56.9321C92.2129 56.9321 93.885 58.5773 93.885 61.0944C93.885 61.2491 93.885 61.4741 93.8569 61.6569H93.8428ZM87.506 60.4054H92.0724C91.9179 59.2382 91.0327 58.4367 89.7963 58.4367C88.5598 58.4367 87.6887 59.2242 87.506 60.4054Z" fill="#0F0F0F"/>
<path d="M102.457 57.0305L99.0003 65.0879H97.0472L93.5908 57.0305H95.5579L98.0589 63.0067L100.63 57.0305H102.443H102.457Z" fill="#0F0F0F"/>
<path d="M110.339 61.6569H104.016C104.241 62.838 105.225 63.5833 106.63 63.5833C107.529 63.5833 108.245 63.3021 108.821 62.7115L109.833 63.8786C109.117 64.7364 107.978 65.1864 106.587 65.1864C103.89 65.1864 102.147 63.4427 102.147 61.0522C102.147 58.6617 103.904 56.9321 106.306 56.9321C108.709 56.9321 110.381 58.5773 110.381 61.0944C110.381 61.2491 110.381 61.4741 110.353 61.6569H110.339ZM104.002 60.4054H108.569C108.414 59.2382 107.529 58.4367 106.292 58.4367C105.056 58.4367 104.185 59.2242 104.002 60.4054Z" fill="#0F0F0F"/>
<path d="M116.226 56.9321V58.732C116.057 58.7039 115.931 58.6898 115.79 58.6898C114.357 58.6898 113.458 59.5335 113.458 61.1788V65.0879H111.575V57.0306H113.374V58.2117C113.922 57.368 114.891 56.9462 116.24 56.9462L116.226 56.9321Z" fill="#0F0F0F"/>
<path d="M123.911 60.3632V65.0879H122.127V64.1036C121.677 64.7926 120.806 65.1864 119.598 65.1864C117.757 65.1864 116.591 64.1739 116.591 62.7678C116.591 61.3616 117.49 60.3632 119.935 60.3632H122.014V60.2367C122.014 59.1398 121.354 58.493 120.005 58.493C119.106 58.493 118.164 58.7883 117.56 59.2945L116.816 57.9165C117.673 57.2556 118.923 56.9181 120.23 56.9181C122.548 56.9181 123.897 58.0149 123.897 60.3491L123.911 60.3632ZM122.028 62.5709V61.6288H120.089C118.811 61.6288 118.46 62.1069 118.46 62.6975C118.46 63.3724 119.036 63.8224 119.991 63.8224C120.946 63.8224 121.719 63.4005 122.028 62.5709Z" fill="#0F0F0F"/>
<path d="M133.789 57.0306V63.8645C133.789 66.7894 132.272 68.1252 129.448 68.1252C127.944 68.1252 126.441 67.7315 125.528 66.9722L126.371 65.552C127.073 66.1425 128.225 66.5222 129.335 66.5222C131.12 66.5222 131.892 65.7066 131.892 64.0755V63.6536C131.232 64.3708 130.277 64.7223 129.195 64.7223C126.89 64.7223 125.12 63.1474 125.12 60.8132C125.12 58.4789 126.876 56.9321 129.195 56.9321C130.333 56.9321 131.316 57.2977 131.991 58.0992V57.0306H133.789ZM131.935 60.8132C131.935 59.4492 130.909 58.5352 129.49 58.5352C128.071 58.5352 127.031 59.4632 127.031 60.8132C127.031 62.1631 128.057 63.1193 129.49 63.1193C130.923 63.1193 131.935 62.1771 131.935 60.8132Z" fill="#0F0F0F"/>
<path d="M143.189 61.6569H136.866C137.091 62.838 138.074 63.5833 139.479 63.5833C140.378 63.5833 141.095 63.3021 141.671 62.7115L142.683 63.8786C141.966 64.7364 140.828 65.1864 139.437 65.1864C136.739 65.1864 134.997 63.4427 134.997 61.0522C134.997 58.6617 136.753 56.9321 139.156 56.9321C141.559 56.9321 143.231 58.5773 143.231 61.0944C143.231 61.2491 143.231 61.4741 143.203 61.6569H143.189ZM136.852 60.4054H141.418C141.264 59.2382 140.378 58.4367 139.142 58.4367C137.906 58.4367 137.034 59.2242 136.852 60.4054Z" fill="#0F0F0F"/>
<path d="M30.5842 76.91H27.0098V71.8975H30.5842V76.91ZM28.0549 76.0568H29.5599V72.708H28.0549V76.0568ZM32.6536 74.0304H33.7405V74.905H32.6536V78.7443H31.6084V71.1722H32.6536V74.0304Z" fill="#0F0F0F"/>
<path d="M43.718 74.0304H44.5404V71.3429H45.536V78.4244H44.5404V74.905H43.3934C43.177 75.3742 42.874 75.8008 42.506 76.1847C42.1381 76.5687 41.662 76.9313 41.0777 77.2512L40.4717 76.526C40.9478 76.2487 41.359 75.9501 41.662 75.6515C41.965 75.3529 42.2247 74.9903 42.4195 74.6063L40.6232 74.7983L40.515 73.9025L42.7225 73.7958C42.7874 73.5399 42.8307 73.2412 42.8523 72.9H40.8829V72.0468H43.9128C43.9128 72.836 43.8262 73.4972 43.6747 74.0518L43.718 74.0304ZM47.2024 78.7443H46.1852V71.1722H47.2024V78.7443Z" fill="#0F0F0F"/>
<path d="M58.3841 72.5412H55.8088V73.1401H58.173V73.9743H55.8088V74.5947C56.5476 74.5947 57.1386 74.5947 57.5819 74.5519C58.0252 74.5305 58.4685 74.4877 58.9118 74.4021L59.0173 75.2364C58.5529 75.3219 58.1096 75.3647 57.6452 75.3861C57.1808 75.4075 56.5898 75.4289 55.8932 75.4289H54.7744V71.6856H58.4052V72.5412H58.3841ZM59.4395 76.0492C59.8406 76.1561 60.1361 76.3273 60.3472 76.5412C60.5583 76.7551 60.6638 77.0117 60.6638 77.3112C60.6638 77.6107 60.5583 77.8673 60.3472 78.0812C60.1361 78.2951 59.8406 78.4663 59.4395 78.5732C59.0384 78.6802 58.5951 78.7443 58.0674 78.7443C57.5397 78.7443 57.0753 78.6802 56.6953 78.5732C56.3154 78.4663 56.0198 78.2951 55.8088 78.0812C55.5977 77.8673 55.4921 77.6107 55.4921 77.2898C55.4921 76.969 55.5977 76.7337 55.8088 76.5198C56.0198 76.3059 56.3154 76.1347 56.6953 76.0278C57.0753 75.9208 57.5397 75.8567 58.0674 75.8567C58.5951 75.8567 59.0595 75.9208 59.4395 76.0278V76.0492ZM56.9275 76.862C56.6742 76.969 56.5476 77.1187 56.5476 77.3112C56.5476 77.5037 56.6742 77.6748 56.9275 77.7818C57.1808 77.8887 57.5608 77.9529 58.0674 77.9529C58.574 77.9529 58.954 77.8887 59.2073 77.7818C59.4817 77.6748 59.6084 77.5251 59.6084 77.3112C59.6084 77.0973 59.4817 76.9476 59.2073 76.862C58.9329 76.7764 58.5529 76.7123 58.0674 76.7123C57.5819 76.7123 57.1808 76.7764 56.9275 76.862ZM60.6216 75.7711H59.5661V71.1722H60.6216V75.7711Z" fill="#0F0F0F"/>
<path d="M71.1038 74.7983H69.3421V76.0994C69.7938 76.0994 70.2004 76.0781 70.5618 76.0568C70.9231 76.0354 71.3071 75.9928 71.6911 75.9075L71.7814 76.782C71.3071 76.8673 70.8554 76.91 70.4036 76.9526C69.9745 76.974 69.4324 76.9953 68.8 76.9953H68.2354V73.9878H69.9971V72.7933H68.2354V71.9614H71.0812V74.841L71.1038 74.7983ZM73.3173 78.3817H72.2557V74.6277H71.4426V73.7745H72.2557V71.3215H73.3173V78.4031V78.3817ZM74.9661 78.7443H73.9045V71.1722H74.9661V78.7443Z" fill="#0F0F0F"/>
<path d="M88.407 78.7443H87.4015V74.6818H86.0471V76.9364H82.5381V71.7465H83.5641V73.5757H85.0621V71.7465H86.0676V73.831H87.422V71.1722H88.4275V78.7443H88.407ZM85.0416 76.1069V74.4265H83.5436V76.1069H85.0416Z" fill="#0F0F0F"/>
<path d="M100.076 74.7243H97.2535V76.1069C97.929 76.1069 98.5562 76.0856 99.1352 76.043C99.7142 76.0005 100.317 75.9367 100.92 75.8516L101.017 76.7024C100.341 76.8088 99.6901 76.8726 99.0387 76.9151C98.3874 76.9577 97.6154 76.9789 96.771 76.9789H95.999V73.8735H98.8457V72.6611H95.999V71.8103H100.076V74.7243ZM102.73 78.7443H101.524V71.1722H102.73V78.7443Z" fill="#0F0F0F"/>
<path d="M112.849 74.4784C113.006 74.8836 113.23 75.2462 113.522 75.5662C113.813 75.8861 114.195 76.1421 114.621 76.3127L114.015 77.1446C113.544 76.9526 113.163 76.6967 112.826 76.3341C112.49 75.9714 112.243 75.5662 112.063 75.0969C111.884 75.6088 111.615 76.0568 111.278 76.462C110.942 76.8673 110.56 77.1446 110.089 77.3366L109.461 76.5047C109.887 76.3341 110.246 76.0568 110.56 75.7155C110.874 75.3742 111.099 74.9903 111.256 74.5637C111.413 74.1371 111.48 73.7105 111.48 73.2626V72.7933H109.797V71.9188H114.307V72.7933H112.647V73.2626C112.647 73.6892 112.714 74.0944 112.871 74.4997L112.849 74.4784ZM116.192 78.7443H115.07V71.1722H116.192V78.7443Z" fill="#0F0F0F"/>
<defs>
<linearGradient id="paint0_linear_2182_20813" x1="48.6422" y1="-13.7981" x2="90.8135" y2="52.5287" gradientUnits="userSpaceOnUse">
<stop stop-color="#FFD100"/>
<stop offset="1" stop-color="#FF3400"/>
</linearGradient>
</defs>
</svg>
