<svg width="1068" height="192" viewBox="0 0 1068 192" fill="none" xmlns="http://www.w3.org/2000/svg">
<path d="M159.5 32.0627C120.824 -6.70764 60.4714 -10.2722 17.6549 21.125C16.6807 21.8574 16.5832 23.3223 17.4113 24.2012L27.2509 34.0647C27.9328 34.7483 27.884 35.8714 27.1047 36.5062C24.4256 38.6058 21.7952 40.852 19.3597 43.3423C11.0302 51.6921 4.64916 61.3114 0.216497 71.5167C-0.221897 72.4933 0.0216315 73.6652 0.801 74.4465L11.907 85.5795C12.7838 86.4584 13.0273 87.728 12.5889 88.8511C3.1391 113.9 8.44854 143.247 28.566 163.364C48.6834 183.482 77.9585 188.853 102.898 179.38C104.019 178.941 105.334 179.185 106.162 180.064L117.268 191.197C118.047 191.978 119.216 192.222 120.19 191.783C130.42 187.34 139.967 180.943 148.296 172.593C150.781 170.103 153.021 167.515 155.116 164.829C155.701 164.048 156.87 163.999 157.551 164.683L167.391 174.546C168.268 175.425 169.729 175.328 170.46 174.302C201.781 131.381 198.225 70.8819 159.549 32.1116L159.5 32.0627ZM144.789 149.546C144.351 150.278 143.279 150.376 142.695 149.79L136.801 143.882C136.021 143.1 134.706 143.198 134.073 144.126C132.125 146.811 129.981 149.399 127.546 151.841C118.875 160.532 108.256 166.099 97.053 168.54C95.7865 168.833 94.4226 168.394 93.4971 167.466L87.5544 161.509C86.9699 160.923 86.1419 160.679 85.3138 160.776C70.8468 163.023 55.5516 158.579 44.3969 147.397C33.2422 136.215 28.8096 120.883 31.0503 106.381C31.1964 105.551 30.9041 104.721 30.3196 104.135L24.3769 98.1774C23.4514 97.2497 23.013 95.8825 23.3052 94.6129C25.7408 83.431 31.2938 72.7863 39.9642 64.0458C42.3998 61.6044 44.9327 59.4559 47.6605 57.5027C48.586 56.868 48.6834 55.5496 47.9041 54.7683L42.0101 48.86C41.3769 48.2252 41.523 47.1998 42.2536 46.7603C70.9928 28.4494 109.474 31.8674 134.56 56.9656C159.646 82.0638 163.007 120.688 144.741 149.497L144.789 149.546Z" fill="url(#paint0_linear_64_2382)"/>
<path d="M314.984 103.988L314.887 64.4365L295.305 97.152H290.385L270.853 64.9248V103.939H260.331V44.27H269.44L293.065 83.8217L316.299 44.27H325.408L325.506 103.939H315.033L314.984 103.988Z" fill="#0F0F0F"/>
<path d="M375.044 77.2787V103.939H365.01V98.4218C362.477 102.328 357.508 104.574 350.738 104.574C340.362 104.574 333.835 98.8612 333.835 90.9509C333.835 83.0406 338.95 77.3764 352.686 77.3764H364.425V76.6928C364.425 70.4915 360.674 66.7805 353.124 66.7805C348.01 66.7805 342.749 68.4895 339.339 71.2728L335.15 63.5089C339.973 59.7491 347.036 57.8936 354.391 57.8936C367.494 57.8936 375.044 64.0949 375.044 77.2299V77.2787ZM364.376 89.7302V84.4078H353.417C346.207 84.4078 344.21 87.1422 344.21 90.4626C344.21 94.3201 347.425 96.7616 352.881 96.7616C358.336 96.7616 362.574 94.369 364.376 89.6814V89.7302Z" fill="#0F0F0F"/>
<path d="M411.479 57.9424V68.0989C410.554 67.9524 409.775 67.8547 408.995 67.8547C400.909 67.8547 395.795 72.64 395.795 81.9175V103.988H385.176V58.4795H395.308V65.1203C398.376 60.335 403.881 57.9424 411.479 57.9424Z" fill="#0F0F0F"/>
<path d="M435.592 84.4565L427.652 91.9762V103.988H417.033V40.7544H427.652V78.9388L449.669 58.4794H462.431L443.483 77.5716L464.234 103.988H451.325L435.592 84.4565Z" fill="#0F0F0F"/>
<path d="M508.365 84.6031H472.758C474.024 91.2439 479.577 95.492 487.468 95.492C492.583 95.492 496.577 93.8807 499.792 90.5603L505.491 97.1034C501.399 101.937 495.018 104.525 487.225 104.525C472.027 104.525 462.139 94.7108 462.139 81.1851C462.139 67.6594 472.076 57.8936 485.617 57.8936C499.159 57.8936 508.56 67.1711 508.56 81.4292C508.56 82.2593 508.462 83.5289 508.414 84.5543L508.365 84.6031ZM472.66 77.5229H498.428C497.6 70.9798 492.583 66.4387 485.568 66.4387C478.554 66.4387 473.683 70.8821 472.66 77.5229Z" fill="#0F0F0F"/>
<path d="M542.56 101.498C540.027 103.549 536.179 104.574 532.331 104.574C522.394 104.574 516.695 99.3004 516.695 89.2416V67.3661H509.193V58.821H516.695V48.4204H527.314V58.821H539.491V67.3661H527.314V88.9975C527.314 93.4409 529.506 95.8335 533.597 95.8335C535.789 95.8335 537.932 95.2476 539.54 93.9292L542.511 101.547L542.56 101.498Z" fill="#0F0F0F"/>
<path d="M546.457 44.5631C546.457 40.9986 549.38 38.1665 553.276 38.1665C557.173 38.1665 560.096 40.8033 560.096 44.319C560.096 48.0788 557.271 50.9597 553.276 50.9597C549.282 50.9597 546.457 48.1277 546.457 44.5631ZM547.918 58.4794H558.537V103.988H547.918V58.4794Z" fill="#0F0F0F"/>
<path d="M613.824 77.8647V103.939H603.205V79.2319C603.205 71.1263 599.211 67.2199 592.391 67.2199C584.841 67.2199 579.726 71.8099 579.726 80.9409V103.939H569.107V58.4307H579.239V64.2902C582.698 60.0909 588.251 57.8936 594.875 57.8936C605.738 57.8936 613.872 64.0949 613.872 77.8647H613.824Z" fill="#0F0F0F"/>
<path d="M669.353 58.4795V97.1034C669.353 113.656 660.78 121.127 644.851 121.127C636.327 121.127 627.949 118.93 622.737 114.633L627.511 106.625C631.505 109.945 637.983 112.094 644.267 112.094C654.301 112.094 658.734 107.504 658.734 98.2753V95.8827C654.983 99.9843 649.625 101.937 643.536 101.937C630.531 101.937 620.594 93.0506 620.594 79.8667C620.594 66.6828 630.531 57.9424 643.536 57.9424C649.917 57.9424 655.519 59.9932 659.27 64.5343V58.4795H669.402H669.353ZM658.88 79.8667C658.88 72.2005 653.132 66.9758 645.095 66.9758C637.058 66.9758 631.213 72.2005 631.213 79.8667C631.213 87.5329 637.009 92.9041 645.095 92.9041C653.181 92.9041 658.88 87.6305 658.88 79.8667Z" fill="#0F0F0F"/>
<path d="M700.967 44.3188H712.024V94.6129H743.15V103.988H700.967V44.3188Z" fill="#0F0F0F"/>
<path d="M789.522 84.6031H753.915C755.181 91.2439 760.734 95.492 768.625 95.492C773.74 95.492 777.734 93.8807 780.949 90.5603L786.648 97.1034C782.557 101.937 776.175 104.525 768.382 104.525C753.184 104.525 743.296 94.7108 743.296 81.1851C743.296 67.6594 753.233 57.8936 766.774 57.8936C780.316 57.8936 789.717 67.1711 789.717 81.4292C789.717 82.2593 789.62 83.5289 789.571 84.5543L789.522 84.6031ZM753.769 77.5229H779.537C778.708 70.9798 773.691 66.4387 766.677 66.4387C759.663 66.4387 754.792 70.8821 753.769 77.5229Z" fill="#0F0F0F"/>
<path d="M838.086 58.4795L818.602 103.988H807.642L788.158 58.4795H799.215L813.342 92.2205L827.857 58.4795H838.086Z" fill="#0F0F0F"/>
<path d="M882.559 84.6031H846.952C848.218 91.2439 853.771 95.492 861.662 95.492C866.777 95.492 870.771 93.8807 873.986 90.5603L879.685 97.1034C875.594 101.937 869.213 104.525 861.419 104.525C846.221 104.525 836.333 94.7108 836.333 81.1851C836.333 67.6594 846.27 57.8936 859.811 57.8936C873.353 57.8936 882.754 67.1711 882.754 81.4292C882.754 82.2593 882.657 83.5289 882.608 84.5543L882.559 84.6031ZM846.854 77.5229H872.622C871.794 70.9798 866.777 66.4387 859.763 66.4387C852.748 66.4387 847.877 70.8821 846.854 77.5229Z" fill="#0F0F0F"/>
<path d="M915.78 57.9424V68.0989C914.855 67.9524 914.075 67.8547 913.296 67.8547C905.21 67.8547 900.096 72.64 900.096 81.9175V103.988H889.477V58.4795H899.608V65.1203C902.677 60.335 908.182 57.9424 915.78 57.9424Z" fill="#0F0F0F"/>
<path d="M959.083 77.2787V103.939H949.049V98.4218C946.516 102.328 941.547 104.574 934.777 104.574C924.401 104.574 917.874 98.8612 917.874 90.9509C917.874 83.0406 922.989 77.3764 936.725 77.3764H948.464V76.6928C948.464 70.4915 944.713 66.7805 937.163 66.7805C932.049 66.7805 926.788 68.4895 923.378 71.2728L919.189 63.5089C924.011 59.7491 931.075 57.8936 938.43 57.8936C951.533 57.8936 959.083 64.0949 959.083 77.2299V77.2787ZM948.464 89.7302V84.4078H937.504C930.295 84.4078 928.298 87.1422 928.298 90.4626C928.298 94.3201 931.513 96.7616 936.968 96.7616C942.424 96.7616 946.662 94.369 948.464 89.6814V89.7302Z" fill="#0F0F0F"/>
<path d="M1014.76 58.4795V97.1034C1014.76 113.656 1006.19 121.127 990.258 121.127C981.733 121.127 973.355 118.93 968.143 114.633L972.917 106.625C976.911 109.945 983.39 112.094 989.673 112.094C999.708 112.094 1004.14 107.504 1004.14 98.2753V95.8827C1000.39 99.9843 995.031 101.937 988.943 101.937C975.937 101.937 966 93.0506 966 79.8667C966 66.6828 975.937 57.9424 988.943 57.9424C995.324 57.9424 1000.93 59.9932 1004.68 64.5343V58.4795H1014.81H1014.76ZM1004.29 79.8667C1004.29 72.2005 998.539 66.9758 990.501 66.9758C982.464 66.9758 976.619 72.2005 976.619 79.8667C976.619 87.5329 982.415 92.9041 990.501 92.9041C998.587 92.9041 1004.29 87.6305 1004.29 79.8667Z" fill="#0F0F0F"/>
<path d="M1067.81 84.6031H1032.2C1033.46 91.2439 1039.02 95.492 1046.91 95.492C1052.02 95.492 1056.02 93.8807 1059.23 90.5603L1064.93 97.1034C1060.84 101.937 1054.46 104.525 1046.66 104.525C1031.47 104.525 1021.58 94.7108 1021.58 81.1851C1021.58 67.6594 1031.52 57.8936 1045.06 57.8936C1058.6 57.8936 1068 67.1711 1068 81.4292C1068 82.2593 1067.9 83.5289 1067.85 84.5543L1067.81 84.6031ZM1032.05 77.5229H1057.82C1056.99 70.9798 1051.97 66.4387 1044.96 66.4387C1037.95 66.4387 1033.07 70.8821 1032.05 77.5229Z" fill="#0F0F0F"/>
<path d="M273.824 146.909H260.282V128.208H273.824V146.909ZM264.228 143.784H269.927V131.333H264.228V143.784ZM281.617 136.216H285.758V139.487H281.617V153.794H277.672V125.571H281.617V136.216Z" fill="#0F0F0F"/>
<path d="M320.683 136.216H323.703V126.157H327.357V152.524H323.703V139.389H319.563C318.784 141.098 317.663 142.71 316.3 144.175C314.936 145.64 313.182 146.958 311.087 148.13L308.896 145.444C310.649 144.419 312.11 143.345 313.279 142.173C314.448 141.001 315.374 139.731 316.056 138.315L309.529 138.999L309.09 135.63L317.176 135.19C317.42 134.214 317.566 133.09 317.712 131.87H310.503V128.696H321.609C321.609 131.626 321.317 134.116 320.781 136.216H320.683ZM333.397 153.794H329.695V125.571H333.397V153.794Z" fill="#0F0F0F"/>
<path d="M373.729 130.698H364.035V132.895H372.901V135.971H364.035V138.218C366.812 138.218 369.053 138.169 370.709 138.071C372.365 137.973 374.021 137.827 375.677 137.534L376.067 140.61C374.362 140.903 372.608 141.098 370.904 141.196C369.15 141.294 366.958 141.343 364.328 141.343H360.09V127.475H373.729V130.649V130.698ZM377.674 143.686C379.136 144.126 380.256 144.712 381.084 145.542C381.864 146.372 382.253 147.3 382.302 148.423C382.302 149.546 381.912 150.522 381.084 151.304C380.305 152.085 379.136 152.72 377.674 153.159C376.213 153.599 374.508 153.794 372.511 153.794C370.514 153.794 368.809 153.599 367.348 153.159C365.886 152.72 364.766 152.134 363.987 151.304C363.207 150.474 362.818 149.546 362.818 148.374C362.818 147.202 363.207 146.323 363.987 145.493C364.766 144.712 365.886 144.077 367.348 143.638C368.809 143.198 370.514 143.003 372.511 143.003C374.508 143.003 376.213 143.198 377.674 143.638V143.686ZM368.225 146.714C367.25 147.104 366.763 147.642 366.763 148.423C366.763 149.204 367.25 149.79 368.225 150.181C369.199 150.571 370.611 150.767 372.511 150.767C374.411 150.767 375.823 150.571 376.798 150.181C377.821 149.79 378.308 149.204 378.308 148.423C378.308 147.642 377.82 147.104 376.846 146.714C375.872 146.323 374.411 146.128 372.511 146.128C370.611 146.128 369.199 146.323 368.225 146.714ZM382.107 142.661H378.161V125.571H382.107V142.661Z" fill="#0F0F0F"/>
<path d="M418.884 139.096H412.698V143.931C414.256 143.931 415.718 143.833 416.984 143.735C418.299 143.638 419.615 143.442 420.978 143.198L421.319 146.421C419.663 146.714 418.056 146.958 416.497 147.056C414.938 147.153 413.087 147.202 410.895 147.202H408.898V135.971H415.036V131.528H408.85V128.403H418.835V139.096H418.884ZM426.629 152.427H422.927V138.413H420.053V135.239H422.927V126.108H426.629V152.476V152.427ZM432.474 153.794H428.724V125.571H432.474V153.794Z" fill="#0F0F0F"/>
<path d="M481.476 153.843H477.58V138.706H472.368V147.153H458.777V127.719H462.723V134.555H468.519V127.719H472.368V135.483H477.58V125.522H481.476V153.843ZM468.471 143.979V137.68H462.674V143.979H468.471Z" fill="#0F0F0F"/>
<path d="M522.15 138.804H512.847V143.979C515.039 143.979 517.133 143.882 519.033 143.735C520.932 143.589 522.93 143.345 524.927 143.052L525.268 146.226C523.076 146.616 520.884 146.86 518.74 147.007C516.549 147.153 514.113 147.202 511.288 147.202H508.755V135.63H518.107V131.088H508.755V127.915H522.15V138.804ZM530.869 153.843H526.924V125.522H530.869V153.843Z" fill="#0F0F0F"/>
<path d="M568.571 137.876C569.107 139.389 569.886 140.708 570.958 141.929C572.029 143.149 573.296 144.077 574.854 144.712L572.711 147.788C571.104 147.104 569.691 146.128 568.571 144.761C567.402 143.442 566.525 141.88 565.843 140.122C565.21 142.075 564.284 143.735 563.115 145.2C561.946 146.665 560.534 147.739 558.926 148.472L556.686 145.347C558.196 144.663 559.462 143.686 560.534 142.417C561.605 141.147 562.385 139.682 562.969 138.071C563.505 136.46 563.797 134.848 563.797 133.237V131.528H557.806V128.305H573.734V131.528H567.84V133.237C567.84 134.8 568.084 136.362 568.62 137.827L568.571 137.876ZM580.408 153.794H576.413V125.571H580.408V153.794Z" fill="#0F0F0F"/>
<defs>
<linearGradient id="paint0_linear_64_2382" x1="-6.26202" y1="-61.3475" x2="181.484" y2="233.411" gradientUnits="userSpaceOnUse">
<stop stop-color="#FFD100"/>
<stop offset="1" stop-color="#FF3400"/>
</linearGradient>
</defs>
</svg>
