<svg width="14" height="14" viewBox="0 0 14 14" fill="none" xmlns="http://www.w3.org/2000/svg">
<path d="M11.2188 2.77751C8.65852 0.217199 4.66328 -0.0181949 1.82888 2.0552C1.76439 2.10357 1.75794 2.20031 1.81276 2.25835L2.46412 2.90971C2.50927 2.95486 2.50604 3.02902 2.45445 3.07094C2.2771 3.2096 2.10297 3.35793 1.94174 3.52238C1.39034 4.07378 0.967924 4.70902 0.674488 5.38296C0.645467 5.44745 0.661588 5.52484 0.713181 5.57643L1.44838 6.31163C1.50642 6.36968 1.52255 6.45351 1.49353 6.52768C0.86796 8.18188 1.21944 10.1198 2.55118 11.4484C3.88293 12.7769 5.8209 13.1316 7.47188 12.506C7.54604 12.477 7.63311 12.4931 7.68793 12.5512L8.42313 13.2864C8.47472 13.338 8.55211 13.3541 8.6166 13.3251C9.29376 13.0316 9.92577 12.6092 10.4772 12.0578C10.6416 11.8934 10.79 11.7225 10.9286 11.5451C10.9673 11.4935 11.0447 11.4903 11.0898 11.5354L11.7412 12.1868C11.7992 12.2448 11.896 12.2384 11.9444 12.1707C14.0178 9.33628 13.7824 5.34104 11.222 2.78073L11.2188 2.77751ZM10.245 10.5358C10.216 10.5842 10.145 10.5906 10.1064 10.5519L9.71618 10.1618C9.66458 10.1102 9.57752 10.1166 9.5356 10.1779C9.40662 10.3552 9.26474 10.5261 9.10351 10.6874C8.52954 11.2613 7.82658 11.6289 7.08493 11.7902C7.00109 11.8095 6.9108 11.7805 6.84954 11.7192L6.45614 11.3258C6.41744 11.2871 6.36263 11.271 6.30781 11.2775C5.35011 11.4258 4.3376 11.1324 3.59917 10.3939C2.86074 9.65551 2.56731 8.643 2.71564 7.6853C2.72531 7.63048 2.70596 7.57566 2.66727 7.53697L2.27387 7.14357C2.2126 7.08231 2.18358 6.99202 2.20293 6.90818C2.36416 6.16975 2.73176 5.4668 3.30573 4.8896C3.46696 4.72837 3.63464 4.58649 3.81522 4.45751C3.87648 4.41559 3.88293 4.32852 3.83134 4.27693L3.44117 3.88676C3.39925 3.84484 3.40892 3.77712 3.45729 3.7481C5.35978 2.53889 7.9072 2.76461 9.56785 4.42204C11.2285 6.07946 11.451 8.6301 10.2418 10.5326L10.245 10.5358Z" fill="white"/>
</svg>
