<svg width="240" height="208" viewBox="0 0 240 208" fill="none" xmlns="http://www.w3.org/2000/svg">
<path d="M152.306 15.9433C132.844 -3.33489 102.49 -5.10724 80.9559 10.5019C80.4537 10.875 80.4223 11.5902 80.8304 12.0255L85.7586 16.9073C86.1039 17.2493 86.0725 17.809 85.6959 18.1199C84.3461 19.1771 83.0277 20.2965 81.8035 21.5091C77.5972 25.6757 74.3954 30.4331 72.1667 35.5325C71.947 36.03 72.0725 36.6208 72.4492 36.9939L78.0367 42.5286C78.4761 42.964 78.6017 43.5858 78.382 44.1455C73.642 56.5831 76.3102 71.1661 86.4178 81.1784C96.5254 91.1906 111.247 93.8336 123.803 89.1384C124.368 88.9208 125.028 89.0451 125.436 89.4805L131.023 95.0152C131.4 95.3883 131.996 95.5127 132.499 95.295C137.647 93.0873 142.449 89.9158 146.655 85.7492C147.911 84.5054 149.01 83.2306 150.077 81.8935C150.391 81.5204 150.956 81.4582 151.301 81.8313L156.229 86.7131C156.669 87.1484 157.391 87.0862 157.768 86.5887C173.525 65.2583 171.736 35.1905 152.274 15.9122L152.306 15.9433ZM144.929 74.3377C144.709 74.7108 144.176 74.7419 143.862 74.4621L140.911 71.5393C140.503 71.135 139.875 71.1972 139.53 71.6636C138.557 73.0007 137.458 74.2755 136.265 75.4882C131.902 79.8102 126.566 82.5776 120.947 83.7903C120.288 83.9457 119.629 83.7281 119.158 83.2617L116.176 80.3077C115.893 80.0279 115.454 79.9035 115.046 79.9657C107.763 81.0851 100.073 78.8774 94.4537 73.3116C88.8349 67.7458 86.6062 60.1278 87.7362 52.914C87.799 52.5098 87.6734 52.1056 87.3909 51.7946L84.4089 48.8407C83.938 48.3743 83.7183 47.7213 83.8752 47.0684C85.0994 41.5025 87.8932 36.2166 92.2564 31.8945C93.4806 30.6819 94.7676 29.6247 96.1174 28.6608C96.5882 28.3498 96.651 27.6968 96.2429 27.2926L93.2923 24.3698C92.9784 24.0589 93.0411 23.5613 93.4178 23.3126C107.857 14.2021 127.225 15.9122 139.844 28.3809C152.463 40.8807 154.158 60.0656 144.96 74.3688L144.929 74.3377Z" fill="url(#paint0_linear_3283_21530)"/>
<path d="M10.0645 133.891V136.98H22.0957V133.891H24.2285V143.598H17.1191V146.195H27.127V147.973H4.97852V146.195H14.9863V143.598H7.93164V133.891H10.0645ZM10.0645 141.875H22.0957V138.676H10.0645V141.875ZM24.666 154.891V156.695H7.84961V149.914H10.0098V154.891H24.666ZM35.877 134.055C39.1445 134.027 41.6191 135.928 42.084 138.73H47.1699V132.906H49.3301V145.949H47.1699V140.508H42.1113C41.6738 143.379 39.1719 145.293 35.877 145.293C32.1855 145.293 29.5605 142.996 29.5605 139.66C29.5605 136.352 32.1855 134.027 35.877 134.055ZM35.877 135.887C33.3887 135.859 31.6113 137.418 31.6113 139.66C31.6113 141.875 33.3887 143.488 35.877 143.488C38.3379 143.488 40.0879 141.875 40.0879 139.66C40.0879 137.418 38.3379 135.859 35.877 135.887ZM35.8223 147.18V150.27H47.1699V147.18H49.3301V156.887H33.6621V147.18H35.8223ZM35.8223 155.137H47.1699V151.992H35.8223V155.137ZM74.2129 132.906V157.215H72.1348V132.906H74.2129ZM69.3184 133.426V155.984H67.2676V144.172H64.1504C63.918 148.902 61.9082 151.855 58.9004 151.855C55.7285 151.855 53.6777 148.574 53.6777 143.406C53.6777 138.238 55.7285 134.957 58.9004 134.957C61.8535 134.957 63.8496 137.814 64.123 142.395H67.2676V133.426H69.3184ZM58.9004 136.98C56.9316 136.98 55.6738 139.441 55.7012 143.406C55.6738 147.344 56.9316 149.832 58.9004 149.805C60.8691 149.832 62.127 147.344 62.127 143.406C62.127 139.441 60.8691 136.98 58.9004 136.98ZM89.8535 135.121V146.305H78.6152V135.121H89.8535ZM80.7207 136.871V144.582H87.7754V136.871H80.7207ZM96.5801 132.906V140.316H100.244V142.121H96.5801V150.734H94.4473V132.906H96.5801ZM97.7012 154.891V156.695H81.377V149.039H83.4824V154.891H97.7012ZM117.553 136.926C117.553 140.098 120.205 142.914 123.814 144.008L122.721 145.703C119.877 144.801 117.594 142.846 116.486 140.344C115.42 143.023 113.123 145.115 110.225 146.113L109.104 144.418C112.768 143.27 115.393 140.262 115.393 136.926V136.297H109.705V134.547H123.158V136.297H117.553V136.926ZM128.873 132.906V146.059H126.74V132.906H128.873ZM115.256 147.262V150.215H126.74V147.262H128.873V156.887H113.123V147.262H115.256ZM115.256 155.137H126.74V151.938H115.256V155.137ZM155.15 144.281V146.059H145.115V148.656C149.709 148.848 152.416 150.352 152.443 152.922C152.416 155.629 149.299 157.16 144.076 157.16C138.799 157.16 135.682 155.629 135.682 152.922C135.682 150.352 138.375 148.848 143.01 148.656V146.059H133.002V144.281H155.15ZM144.076 150.297C140.166 150.324 137.842 151.281 137.869 152.922C137.842 154.535 140.166 155.492 144.076 155.492C147.932 155.492 150.283 154.535 150.283 152.922C150.283 151.281 147.932 150.324 144.076 150.297ZM153.182 134.055V135.805H145.471C145.607 138.539 149.627 140.658 153.92 141.109L153.127 142.805C149.148 142.326 145.416 140.549 144.076 137.828C142.75 140.549 139.031 142.326 135.025 142.805L134.26 141.109C138.471 140.658 142.518 138.539 142.682 135.805H135.025V134.055H153.182ZM176.014 132.906V142.941H180.088V144.719H176.014V157.215H173.881V132.906H176.014ZM171.529 136.816V138.594H157.064V136.816H163.326V133.207H165.459V136.816H171.529ZM164.42 140.617C167.865 140.617 170.354 142.914 170.381 146.195C170.354 149.477 167.865 151.773 164.42 151.773C160.947 151.773 158.432 149.477 158.459 146.195C158.432 142.914 160.947 140.617 164.42 140.617ZM164.42 142.422C162.15 142.422 160.482 144.008 160.51 146.195C160.482 148.41 162.15 149.969 164.42 149.941C166.662 149.969 168.303 148.41 168.33 146.195C168.303 144.008 166.662 142.422 164.42 142.422ZM188.619 139.824C188.619 143.68 190.506 147.863 193.732 149.777L192.502 151.445C190.164 150.023 188.482 147.426 187.635 144.473C186.732 147.699 184.928 150.475 182.494 151.965L181.127 150.352C184.49 148.383 186.541 144.062 186.541 139.906V135.203H188.619V139.824ZM202.236 132.906V157.215H200.158V132.906H202.236ZM197.205 133.426V155.984H195.182V143.461H191.053V141.629H195.182V133.426H197.205ZM227.857 152.293V154.098H205.6V152.293H211.123V145.73C209.045 144.65 207.787 142.9 207.787 140.699C207.787 136.926 211.479 134.465 216.674 134.438C221.869 134.465 225.561 136.926 225.561 140.699C225.561 142.859 224.344 144.596 222.334 145.676V152.293H227.857ZM216.674 136.215C212.682 136.188 209.865 137.992 209.865 140.699C209.865 143.406 212.682 145.238 216.674 145.238C220.639 145.238 223.482 143.406 223.482 140.699C223.482 137.992 220.639 136.188 216.674 136.215ZM213.229 152.293H220.174V146.496C219.121 146.783 217.945 146.934 216.674 146.934C215.43 146.934 214.268 146.797 213.229 146.523V152.293ZM233.736 135.203L233.545 149.422H231.248L231.057 135.203H233.736ZM232.396 155.164C231.439 155.164 230.619 154.371 230.646 153.387C230.619 152.43 231.439 151.637 232.396 151.637C233.354 151.637 234.146 152.43 234.146 153.387C234.146 154.371 233.354 155.164 232.396 155.164ZM15.0273 176.137V177.668C15.0273 179.254 15.0273 181.469 14.4258 184.23L11.4453 183.984C11.8828 181.756 11.9785 180.033 12.0195 178.625H2.42188V176.137H15.0273ZM8.79297 181.605V186.062C11.3633 185.967 13.9746 185.803 16.3672 185.516L16.5312 187.648C11.3906 188.523 5.67578 188.66 1.21875 188.66L0.945312 186.199C2.43555 186.199 4.07617 186.186 5.78516 186.145V181.605H8.79297ZM20.9336 174.715V181.031H24.1328V183.574H20.9336V189.918H17.8164V174.715H20.9336ZM12.6484 190.191C17.8711 190.219 21.125 191.914 21.125 194.73C21.125 197.656 17.8711 199.352 12.6484 199.352C7.42578 199.352 4.17188 197.656 4.17188 194.73C4.17188 191.914 7.42578 190.219 12.6484 190.191ZM12.6484 192.543C9.23047 192.543 7.26172 193.336 7.26172 194.73C7.26172 196.234 9.23047 196.973 12.6484 196.973C16.0391 196.973 17.9805 196.234 18.0078 194.73C17.9805 193.336 16.0391 192.543 12.6484 192.543ZM45.5977 176.984V179.363C45.5703 182.426 45.5703 185.871 44.6133 191.039L41.5508 190.711C42.5078 185.898 42.5078 182.385 42.5352 179.418H27.7695V176.984H45.5977ZM47.9492 193.746V196.234H25.418V193.746H33.7305V185.16H36.7383V193.746H47.9492ZM69.6328 181.715V184.121H52.5156V175.617H55.5234V181.715H69.6328ZM72.1758 186.992V189.398H49.5898V186.992H72.1758ZM69.7969 196.398V198.859H52.2969V191.586H55.332V196.398H69.7969ZM101.188 174.715V199.461H98.1523V185.953H93.3945V183.465H98.1523V174.715H101.188ZM89.5391 181.277C89.5391 185.543 91.8359 190.082 95.8281 191.805L94.0234 194.238C91.1523 192.871 89.1016 190.123 88.0352 186.855C86.9277 190.342 84.8359 193.281 81.9648 194.73L80.1328 192.352C84.0977 190.492 86.4219 185.789 86.4492 181.277V179.637H81.1445V177.148H94.8438V179.637H89.5391V181.277ZM125.25 174.715V199.434H122.215V174.715H125.25ZM104.77 192.406C109.418 192.434 115.461 192.434 120.766 191.75L120.984 193.965C115.461 194.949 109.691 194.949 105.207 194.949L104.77 192.406ZM120.328 177.832V180.238H105.289V177.832H111.277V174.988H114.34V177.832H120.328ZM112.836 181.359C116.391 181.359 118.852 183.191 118.879 186.035C118.852 188.824 116.391 190.711 112.836 190.711C109.281 190.711 106.793 188.824 106.793 186.035C106.793 183.191 109.281 181.359 112.836 181.359ZM112.836 183.684C110.949 183.684 109.664 184.586 109.664 186.035C109.664 187.484 110.949 188.359 112.836 188.387C114.695 188.359 115.953 187.484 115.953 186.035C115.953 184.586 114.695 183.684 112.836 183.684ZM148.219 174.715V184.367H151.883V186.91H148.219V199.379H145.184V174.715H148.219ZM141.684 177.285C141.684 184.559 138.676 190.93 130.445 194.977L128.723 192.625C134.738 189.631 137.992 185.42 138.621 179.801H130.062V177.285H141.684ZM165.637 175.098V177.039H176.301V175.098H179.309V183.328H172.418V185.215H182.234V187.621H159.703V185.215H169.41V183.328H162.629V175.098H165.637ZM165.637 181.059H176.301V179.254H165.637V181.059ZM179.418 189.18V195.168H165.363V196.891H180.102V199.215H162.383V193.035H176.438V191.422H162.355V189.18H179.418ZM205.23 174.715V199.434H202.332V174.715H205.23ZM199.98 175.316V198.258H197.109V186.883H192.707C191.258 189.727 188.934 192.188 185.434 194.211L183.711 192.051C188.838 189.029 191.176 185.16 191.641 180.184H184.969V177.723H194.648C194.648 180.115 194.361 182.357 193.691 184.449H197.109V175.316H199.98ZM230.688 193.938V196.426H208.102V193.938H213.324V187.676C211.355 186.555 210.166 184.791 210.18 182.59C210.152 178.652 214.035 176.055 219.34 176.055C224.672 176.055 228.555 178.652 228.555 182.59C228.555 184.75 227.406 186.486 225.492 187.621V193.938H230.688ZM219.34 178.461C215.648 178.461 213.133 180.02 213.16 182.59C213.133 185.133 215.648 186.719 219.34 186.719C223.031 186.719 225.574 185.133 225.574 182.59C225.574 180.02 223.031 178.461 219.34 178.461ZM216.332 193.938H222.402V188.77C221.459 188.988 220.434 189.098 219.34 189.098C218.273 189.098 217.262 188.988 216.332 188.797V193.938ZM237.387 177.203L237.086 191.176H233.996L233.668 177.203H237.387ZM235.555 197.219C234.379 197.219 233.422 196.262 233.422 195.086C233.422 193.938 234.379 192.98 235.555 192.98C236.676 192.98 237.66 193.938 237.66 195.086C237.66 196.262 236.676 197.219 235.555 197.219Z" fill="#333333"/>
<defs>
<linearGradient id="paint0_linear_3283_21530" x1="68.9335" y1="-30.511" x2="161.775" y2="117.018" gradientUnits="userSpaceOnUse">
<stop stop-color="#FFD100"/>
<stop offset="1" stop-color="#FF3400"/>
</linearGradient>
</defs>
</svg>
