<svg width="232" height="40" viewBox="0 0 232 40" fill="none" xmlns="http://www.w3.org/2000/svg">
<path d="M16.4626 18.4202V7.3546L10.8401 16.5093H9.43446L3.83463 7.48792V18.398H0.819336V1.71069H3.42655L10.1826 12.7763L16.8253 1.71069H19.4325V18.398H16.4626V18.4202Z" fill="#0F0F0F"/>
<path d="M33.6468 10.9544V18.4204H30.7675V16.865C30.042 17.9538 28.6364 18.5759 26.6866 18.5759C23.7167 18.5759 21.835 16.9761 21.835 14.7541C21.835 12.5321 23.2859 10.9544 27.2307 10.9544H30.5861V10.7544C30.5861 9.02128 29.5206 7.99915 27.3441 7.99915C25.8931 7.99915 24.3742 8.46577 23.3993 9.26569L22.1977 7.08812C23.5807 6.04378 25.5984 5.5105 27.7068 5.5105C31.4476 5.5105 33.6241 7.24366 33.6241 10.9322L33.6468 10.9544ZM30.6088 14.443V12.9542H27.4801C25.417 12.9542 24.8503 13.7097 24.8503 14.643C24.8503 15.7095 25.7798 16.4206 27.3214 16.4206C28.8631 16.4206 30.11 15.754 30.6088 14.443Z" fill="#0F0F0F"/>
<path d="M44.0755 5.53247V8.37664C43.8035 8.3322 43.5994 8.30998 43.3727 8.30998C41.0602 8.30998 39.6093 9.64318 39.6093 12.2429V18.4201H36.5713V5.68801H39.4732V7.5545C40.3574 6.22129 41.9217 5.55469 44.0982 5.55469L44.0755 5.53247Z" fill="#0F0F0F"/>
<path d="M50.9682 12.954L48.7011 15.0649V18.4201H45.6631V0.73291H48.7011V11.4208L55.0037 5.68799H58.6538L53.2353 11.0208L59.1752 18.4201H55.4798L50.9682 12.954Z" fill="#0F0F0F"/>
<path d="M71.8014 12.9984H61.5993C61.962 14.8649 63.549 16.0426 65.8162 16.0426C67.2671 16.0426 68.4234 15.5982 69.3529 14.6649L70.9852 16.5092C69.829 17.8646 67.9926 18.5757 65.7481 18.5757C61.3952 18.5757 58.584 15.8204 58.584 12.043C58.584 8.26554 61.4179 5.53247 65.2947 5.53247C69.1715 5.53247 71.8694 8.13222 71.8694 12.1096C71.8694 12.354 71.8694 12.7096 71.8241 12.9984H71.8014ZM61.5766 11.0208H68.9448C68.6954 9.17656 67.2671 7.91002 65.272 7.91002C63.277 7.91002 61.8713 9.15434 61.5766 11.0208Z" fill="#0F0F0F"/>
<path d="M81.5737 17.7315C80.8483 18.3092 79.7374 18.598 78.6491 18.598C75.8152 18.598 74.1829 17.1093 74.1829 14.3096V8.17682H72.0518V5.79927H74.1829V2.88843H77.2208V5.79927H80.6896V8.17682H77.2208V14.2429C77.2208 15.4872 77.8556 16.1538 79.0119 16.1538C79.6467 16.1538 80.2588 15.9761 80.7122 15.6206L81.5737 17.7537V17.7315Z" fill="#0F0F0F"/>
<path d="M82.709 1.79983C82.709 0.799927 83.5478 0 84.6587 0C85.7696 0 86.6085 0.733265 86.6085 1.71095C86.6085 2.75529 85.815 3.57744 84.6587 3.57744C83.5025 3.57744 82.709 2.79973 82.709 1.77761V1.79983ZM83.1171 5.68835H86.155V18.4205H83.1171V5.68835Z" fill="#0F0F0F"/>
<path d="M101.956 11.1097V18.3979H98.9176V11.4875C98.9176 9.221 97.7841 8.13222 95.8343 8.13222C93.6805 8.13222 92.2069 9.42099 92.2069 11.9763V18.4201H89.1689V5.68801H92.0709V7.33229C93.0684 6.15463 94.6554 5.53247 96.5371 5.53247C99.6431 5.53247 101.956 7.26564 101.956 11.1097Z" fill="#0F0F0F"/>
<path d="M117.849 5.68801V16.487C117.849 21.1088 115.4 23.2197 110.843 23.2197C108.417 23.2197 105.991 22.5975 104.518 21.3976L105.878 19.1534C107.012 20.0866 108.871 20.6866 110.662 20.6866C113.541 20.6866 114.788 19.3978 114.788 16.8203V16.1537C113.722 17.2869 112.181 17.8424 110.435 17.8424C106.717 17.8424 103.86 15.3538 103.86 11.6652C103.86 7.97668 106.694 5.53247 110.435 5.53247C112.271 5.53247 113.858 6.11019 114.947 7.37674V5.68801H117.849ZM114.856 11.6652C114.856 9.50987 113.201 8.06556 110.911 8.06556C108.621 8.06556 106.944 9.53209 106.944 11.6652C106.944 13.7983 108.599 15.3093 110.911 15.3093C113.224 15.3093 114.856 13.8206 114.856 11.6652Z" fill="#0F0F0F"/>
<path d="M126.893 1.73315H130.044V15.7985H138.954V18.4205H126.893V1.73315Z" fill="#0F0F0F"/>
<path d="M152.241 12.9984H142.039C142.401 14.8649 143.988 16.0426 146.256 16.0426C147.707 16.0426 148.863 15.5982 149.792 14.6649L151.425 16.5092C150.268 17.8646 148.432 18.5757 146.188 18.5757C141.835 18.5757 139.023 15.8204 139.023 12.043C139.023 8.26554 141.857 5.53247 145.734 5.53247C149.611 5.53247 152.309 8.13222 152.309 12.1096C152.309 12.354 152.309 12.7096 152.264 12.9984H152.241ZM142.016 11.0208H149.384C149.135 9.17656 147.707 7.91002 145.712 7.91002C143.716 7.91002 142.311 9.15434 142.016 11.0208Z" fill="#0F0F0F"/>
<path d="M166.14 5.68823L160.562 18.4204H157.411L151.834 5.68823H155.008L159.043 15.1318L163.192 5.68823H166.117H166.14Z" fill="#0F0F0F"/>
<path d="M178.858 12.9984H168.656C169.019 14.8649 170.606 16.0426 172.873 16.0426C174.324 16.0426 175.48 15.5982 176.41 14.6649L178.042 16.5092C176.886 17.8646 175.049 18.5757 172.805 18.5757C168.452 18.5757 165.641 15.8204 165.641 12.043C165.641 8.26554 168.475 5.53247 172.351 5.53247C176.228 5.53247 178.926 8.13222 178.926 12.1096C178.926 12.354 178.926 12.7096 178.881 12.9984H178.858ZM168.633 11.0208H176.001C175.752 9.17656 174.324 7.91002 172.329 7.91002C170.334 7.91002 168.928 9.15434 168.633 11.0208Z" fill="#0F0F0F"/>
<path d="M188.356 5.53247V8.37664C188.084 8.3322 187.88 8.30998 187.653 8.30998C185.34 8.30998 183.89 9.64318 183.89 12.2429V18.4201H180.852V5.68801H183.753V7.5545C184.638 6.22129 186.202 5.55469 188.378 5.55469L188.356 5.53247Z" fill="#0F0F0F"/>
<path d="M200.758 10.9542V18.4201H197.879V16.8647C197.153 17.9535 195.748 18.5757 193.798 18.5757C190.828 18.5757 188.946 16.9758 188.946 14.7538C188.946 12.5318 190.397 10.9542 194.342 10.9542H197.697V10.7542C197.697 9.02103 196.632 7.9989 194.455 7.9989C193.004 7.9989 191.485 8.46552 190.511 9.26545L189.309 7.08788C190.692 6.04353 192.71 5.51025 194.818 5.51025C198.559 5.51025 200.735 7.24342 200.735 10.932L200.758 10.9542ZM197.72 14.4427V12.954H194.591C192.528 12.954 191.962 13.7095 191.962 14.6427C191.962 15.7093 192.891 16.4203 194.433 16.4203C195.974 16.4203 197.221 15.7537 197.72 14.4427Z" fill="#0F0F0F"/>
<path d="M216.697 5.68801V16.487C216.697 21.1088 214.249 23.2197 209.692 23.2197C207.266 23.2197 204.84 22.5975 203.366 21.3976L204.727 19.1534C205.86 20.0866 207.719 20.6866 209.51 20.6866C212.39 20.6866 213.637 19.3978 213.637 16.8203V16.1537C212.571 17.2869 211.029 17.8424 209.284 17.8424C205.566 17.8424 202.709 15.3538 202.709 11.6652C202.709 7.97668 205.543 5.53247 209.284 5.53247C211.12 5.53247 212.707 6.11019 213.795 7.37674V5.68801H216.697ZM213.705 11.6652C213.705 9.50987 212.05 8.06556 209.76 8.06556C207.47 8.06556 205.792 9.53209 205.792 11.6652C205.792 13.7983 207.447 15.3093 209.76 15.3093C212.072 15.3093 213.705 13.8206 213.705 11.6652Z" fill="#0F0F0F"/>
<path d="M231.862 12.9984H221.66C222.023 14.8649 223.61 16.0426 225.877 16.0426C227.328 16.0426 228.484 15.5982 229.413 14.6649L231.046 16.5092C229.89 17.8646 228.053 18.5757 225.809 18.5757C221.456 18.5757 218.645 15.8204 218.645 12.043C218.645 8.26554 221.478 5.53247 225.355 5.53247C229.232 5.53247 231.93 8.13222 231.93 12.1096C231.93 12.354 231.93 12.7096 231.885 12.9984H231.862ZM221.637 11.0208H229.005C228.756 9.17656 227.328 7.91002 225.333 7.91002C223.338 7.91002 221.932 9.15434 221.637 11.0208Z" fill="#0F0F0F"/>
<path d="M50.1689 37.1013H44.4014V29.1806H50.1689V37.1013ZM46.0878 35.7531H48.5162V30.4614H46.0878V35.7531ZM53.508 32.5512H55.2619V33.9331H53.508V40H51.8216V28.0347H53.508V32.5512Z" fill="#0F0F0F"/>
<path d="M71.3602 32.5512H72.6872V28.3043H74.2936V39.4944H72.6872V33.9331H70.8364C70.4872 34.6746 69.9983 35.3487 69.4047 35.9554C68.811 36.5621 68.0427 37.135 67.0999 37.6406L66.1221 36.4946C66.8903 36.0565 67.5538 35.5846 68.0427 35.1127C68.5316 34.6409 68.9507 34.0679 69.265 33.4612L66.3665 33.7645L66.1919 32.3489L69.7539 32.1804C69.8586 31.7759 69.9285 31.3041 69.9634 30.7648H66.7856V29.4166H71.6745C71.6745 30.6637 71.5349 31.7085 71.2904 32.5849L71.3602 32.5512ZM76.9826 40H75.3413V28.0347H76.9826V40Z" fill="#0F0F0F"/>
<path d="M95.0256 30.1979H90.8702V31.1443H94.6849V32.4625H90.8702V33.4427C92.0623 33.4427 93.016 33.4427 93.7312 33.3751C94.4465 33.3413 95.1618 33.2737 95.8771 33.1385L96.0474 34.4567C95.298 34.5919 94.5828 34.6595 93.8334 34.6933C93.0841 34.7271 92.1304 34.7609 91.0064 34.7609H89.2012V28.8459H95.0596V30.1979H95.0256ZM96.7286 35.7411C97.3757 35.9101 97.8526 36.1805 98.1932 36.5185C98.5338 36.8565 98.7041 37.2622 98.7041 37.7354C98.7041 38.2086 98.5338 38.6142 98.1932 38.9522C97.8526 39.2902 97.3757 39.5606 96.7286 39.7296C96.0814 39.8986 95.3662 40 94.5146 40C93.6631 40 92.9138 39.8986 92.3007 39.7296C91.6876 39.5606 91.2108 39.2902 90.8702 38.9522C90.5295 38.6142 90.3592 38.2086 90.3592 37.7016C90.3592 37.1945 90.5295 36.8228 90.8702 36.4848C91.2108 36.1467 91.6876 35.8763 92.3007 35.7073C92.9138 35.5383 93.6631 35.4369 94.5146 35.4369C95.3662 35.4369 96.1155 35.5383 96.7286 35.7073V35.7411ZM92.6754 37.0256C92.2666 37.1946 92.0623 37.4312 92.0623 37.7354C92.0623 38.0396 92.2666 38.31 92.6754 38.479C93.0841 38.648 93.6972 38.7494 94.5146 38.7494C95.3321 38.7494 95.9452 38.648 96.3539 38.479C96.7967 38.31 97.0011 38.0734 97.0011 37.7354C97.0011 37.3974 96.7967 37.1608 96.3539 37.0256C95.9111 36.8904 95.298 36.789 94.5146 36.789C93.7312 36.789 93.0841 36.8904 92.6754 37.0256ZM98.636 35.3017H96.9329V28.0347H98.636V35.3017Z" fill="#0F0F0F"/>
<path d="M115.55 33.7645H112.708V35.8205C113.437 35.8205 114.093 35.7868 114.676 35.7531C115.259 35.7194 115.878 35.652 116.498 35.5172L116.644 36.8991C115.878 37.0339 115.149 37.1013 114.421 37.1687C113.728 37.2025 112.853 37.2362 111.833 37.2362H110.922V32.4837H113.765V30.5962H110.922V29.2818H115.514V33.8319L115.55 33.7645ZM119.122 39.427H117.409V33.4949H116.097V32.1467H117.409V28.2706H119.122V39.4607V39.427ZM121.782 40H120.069V28.0347H121.782V40Z" fill="#0F0F0F"/>
<path d="M143.47 40H141.847V33.5804H139.662V37.1431H134V28.9421H135.656V31.8326H138.073V28.9421H139.695V32.236H141.88V28.0347H143.503V40H143.47ZM138.04 35.8323V33.1771H135.622V35.8323H138.04Z" fill="#0F0F0F"/>
<path d="M162.299 33.6476H157.745V35.8323C158.835 35.8323 159.847 35.7987 160.781 35.7314C161.715 35.6642 162.689 35.5634 163.662 35.429L163.817 36.7734C162.727 36.9414 161.676 37.0423 160.625 37.1095C159.574 37.1767 158.329 37.2103 156.966 37.2103H155.721V32.3032H160.314V30.3874H155.721V29.043H162.299V33.6476ZM166.581 40H164.635V28.0347H166.581V40Z" fill="#0F0F0F"/>
<path d="M182.909 33.259C183.162 33.8994 183.524 34.4723 183.995 34.9779C184.465 35.4835 185.081 35.888 185.769 36.1576L184.791 37.4721C184.031 37.1687 183.416 36.7643 182.873 36.1913C182.33 35.6183 181.931 34.9779 181.642 34.2364C181.352 35.0453 180.918 35.7531 180.375 36.3935C179.832 37.0339 179.216 37.4721 178.456 37.7754L177.442 36.4609C178.13 36.1913 178.709 35.7531 179.216 35.2138C179.723 34.6746 180.085 34.0679 180.338 33.3938C180.592 32.7197 180.701 32.0456 180.701 31.3378V30.5962H177.985V29.2143H185.262V30.5962H182.583V31.3378C182.583 32.0119 182.692 32.6523 182.945 33.2927L182.909 33.259ZM188.303 40H186.493V28.0347H188.303V40Z" fill="#0F0F0F"/>
</svg>
