<svg width="180" height="164" viewBox="0 0 180 164" fill="none" xmlns="http://www.w3.org/2000/svg">
<path d="M107.601 9.03546C96.6962 -1.88996 79.689 -2.89439 67.6238 5.95167C67.3424 6.16313 67.3248 6.56843 67.5534 6.81513L70.3147 9.58173C70.5082 9.77556 70.4906 10.0928 70.2795 10.269C69.5233 10.8681 68.7846 11.5025 68.0987 12.1897C65.7419 14.551 63.948 17.2471 62.6993 20.1371C62.5761 20.419 62.6465 20.7538 62.8575 20.9653L65.9881 24.102C66.2344 24.3487 66.3047 24.7011 66.1816 25.0183C63.5259 32.0669 65.0208 40.3315 70.6841 46.0057C76.3473 51.6798 84.5959 53.1777 91.631 50.5168C91.9476 50.3934 92.3169 50.4639 92.5456 50.7106L95.6762 53.8473C95.8872 54.0587 96.2214 54.1292 96.5028 54.0059C99.3872 52.7547 102.078 50.9573 104.435 48.596C105.138 47.8912 105.754 47.1687 106.352 46.4109C106.528 46.1995 106.844 46.1642 107.038 46.3757L109.799 49.1423C110.045 49.389 110.45 49.3538 110.661 49.0718C119.49 36.9834 118.487 19.9432 107.583 9.01783L107.601 9.03546ZM103.468 42.1289C103.344 42.3403 103.045 42.358 102.87 42.1994L101.216 40.5429C100.988 40.3139 100.636 40.3491 100.442 40.6134C99.8972 41.3712 99.2816 42.0936 98.6133 42.7809C96.1686 45.2303 93.1787 46.7986 90.0305 47.4859C89.6612 47.574 89.2918 47.4506 89.028 47.1863L87.3572 45.5122C87.1989 45.3536 86.9527 45.2832 86.724 45.3184C82.6437 45.9528 78.3347 44.7016 75.1865 41.5474C72.0383 38.3931 70.7896 34.0758 71.4227 29.9876C71.4579 29.7585 71.3876 29.5294 71.2293 29.3532L69.5584 27.6791C69.2946 27.4148 69.1715 27.0448 69.2595 26.6747C69.9454 23.5204 71.5107 20.5248 73.9554 18.0754C74.6413 17.3881 75.3624 16.789 76.1187 16.2427C76.3825 16.0665 76.4176 15.6964 76.189 15.4674L74.5358 13.8109C74.3599 13.6347 74.3951 13.3528 74.6061 13.2118C82.6964 8.04864 93.548 9.01783 100.618 16.0841C107.689 23.168 108.638 34.0406 103.485 42.1465L103.468 42.1289Z" fill="white"/>
<path d="M12.1355 81.5659V72.7904L7.77376 80.0505H6.68332L2.33916 72.8961V81.5483H0V68.3145H2.02258L7.26371 77.09L12.4169 68.3145H14.4395V81.5483H12.1355V81.5659Z" fill="white"/>
<path d="M25.4669 75.6451V81.5659H23.2333V80.3324C22.6705 81.1959 21.58 81.6893 20.0675 81.6893C17.7635 81.6893 16.3037 80.4205 16.3037 78.6584C16.3037 76.8962 17.4293 75.6451 20.4896 75.6451H23.0926V75.4865C23.0926 74.112 22.2659 73.3014 20.5775 73.3014C19.4519 73.3014 18.2735 73.6714 17.5173 74.3058L16.5851 72.5789C17.658 71.7507 19.2233 71.3278 20.8589 71.3278C23.7609 71.3278 25.4493 72.7022 25.4493 75.6274L25.4669 75.6451ZM23.1101 78.4117V77.231H20.683C19.0826 77.231 18.6429 77.8301 18.6429 78.5703C18.6429 79.4161 19.364 79.98 20.5599 79.98C21.7559 79.98 22.7232 79.4513 23.1101 78.4117Z" fill="white"/>
<path d="M33.5569 71.3453V73.6009C33.3458 73.5657 33.1875 73.548 33.0117 73.548C31.2177 73.548 30.0921 74.6053 30.0921 76.6671V81.5659H27.7354V71.4687H29.9866V72.9489C30.6725 71.8916 31.886 71.363 33.5745 71.363L33.5569 71.3453Z" fill="white"/>
<path d="M38.9046 77.231L37.1458 78.905V81.5659H34.7891V67.5391H37.1458V76.0151L42.0352 71.4687H44.8668L40.6633 75.6979L45.2713 81.5659H42.4045L38.9046 77.231Z" fill="white"/>
<path d="M55.0661 77.2662H47.1517C47.4331 78.7464 48.6642 79.6804 50.423 79.6804C51.5486 79.6804 52.4456 79.3279 53.1667 78.5878L54.433 80.0504C53.536 81.1253 52.1114 81.6892 50.3702 81.6892C46.9934 81.6892 44.8125 79.5042 44.8125 76.5085C44.8125 73.5128 47.011 71.3453 50.0185 71.3453C53.026 71.3453 55.1189 73.4071 55.1189 76.5613C55.1189 76.7552 55.1189 77.0371 55.0837 77.2662H55.0661ZM47.1341 75.6979H52.8501C52.6566 74.2353 51.5486 73.2309 50.0009 73.2309C48.4532 73.2309 47.3627 74.2177 47.1341 75.6979Z" fill="white"/>
<path d="M62.6466 81.0197C62.0838 81.4778 61.222 81.7069 60.3778 81.7069C58.1793 81.7069 56.913 80.5263 56.913 78.3059V73.4424H55.2598V71.5568H56.913V69.2484H59.2698V71.5568H61.9607V73.4424H59.2698V78.2531C59.2698 79.2399 59.7622 79.7685 60.6592 79.7685C61.1516 79.7685 61.6265 79.6276 61.9783 79.3456L62.6466 81.0373V81.0197Z" fill="white"/>
<path d="M63.5273 68.3851C63.5273 67.5921 64.1781 66.9578 65.0399 66.9578C65.9017 66.9578 66.5524 67.5393 66.5524 68.3146C66.5524 69.1428 65.9369 69.7948 65.0399 69.7948C64.1429 69.7948 63.5273 69.1781 63.5273 68.3675V68.3851ZM63.8439 71.4689H66.2007V81.5661H63.8439V71.4689Z" fill="white"/>
<path d="M78.4585 75.7684V81.5483H76.1018V76.0679C76.1018 74.2705 75.2224 73.4071 73.7098 73.4071C72.039 73.4071 70.8958 74.4291 70.8958 76.4556V81.5659H68.5391V71.4687H70.7903V72.7727C71.5641 71.8387 72.7953 71.3453 74.2551 71.3453C76.6646 71.3453 78.4585 72.7198 78.4585 75.7684Z" fill="white"/>
<path d="M90.7871 71.4687V80.0328C90.7871 83.6981 88.8877 85.3722 85.3526 85.3722C83.4707 85.3722 81.5888 84.8787 80.4456 83.9272L81.5009 82.1474C82.3802 82.8875 83.8224 83.3633 85.2119 83.3633C87.4455 83.3633 88.4128 82.3412 88.4128 80.2971V79.7685C87.5862 80.6672 86.3902 81.1077 85.036 81.1077C82.1516 81.1077 79.9355 79.1341 79.9355 76.2089C79.9355 73.2837 82.134 71.3453 85.036 71.3453C86.4606 71.3453 87.6917 71.8035 88.5359 72.8079V71.4687H90.7871ZM88.4656 76.2089C88.4656 74.4996 87.1817 73.3542 85.4053 73.3542C83.629 73.3542 82.3275 74.5172 82.3275 76.2089C82.3275 77.9006 83.6114 79.0989 85.4053 79.0989C87.1993 79.0989 88.4656 77.9182 88.4656 76.2089Z" fill="white"/>
<path d="M97.8037 68.332H100.248V79.4865H107.16V81.5659H97.8037V68.332Z" fill="white"/>
<path d="M117.467 77.2662H109.553C109.834 78.7464 111.066 79.6804 112.824 79.6804C113.95 79.6804 114.847 79.3279 115.568 78.5878L116.834 80.0504C115.937 81.1253 114.513 81.6892 112.772 81.6892C109.395 81.6892 107.214 79.5041 107.214 76.5085C107.214 73.5128 109.412 71.3453 112.42 71.3453C115.427 71.3453 117.52 73.4071 117.52 76.5613C117.52 76.7552 117.52 77.0371 117.485 77.2662H117.467ZM109.535 75.6979H115.251C115.058 74.2353 113.95 73.2309 112.402 73.2309C110.855 73.2309 109.764 74.2177 109.535 75.6979Z" fill="white"/>
<path d="M128.25 71.4686L123.924 81.5658H121.479L117.152 71.4686H119.615L122.745 78.9578L125.964 71.4686H128.233H128.25Z" fill="white"/>
<path d="M138.116 77.2662H130.201C130.483 78.7464 131.714 79.6804 133.473 79.6804C134.598 79.6804 135.495 79.3279 136.216 78.5878L137.483 80.0504C136.586 81.1253 135.161 81.6892 133.42 81.6892C130.043 81.6892 127.862 79.5041 127.862 76.5085C127.862 73.5128 130.061 71.3453 133.068 71.3453C136.076 71.3453 138.169 73.4071 138.169 76.5613C138.169 76.7552 138.169 77.0371 138.134 77.2662H138.116ZM130.184 75.6979H135.9C135.706 74.2353 134.598 73.2309 133.051 73.2309C131.503 73.2309 130.413 74.2177 130.184 75.6979Z" fill="white"/>
<path d="M145.486 71.3453V73.6009C145.275 73.5657 145.116 73.548 144.94 73.548C143.146 73.548 142.021 74.6053 142.021 76.6671V81.5659H139.664V71.4687H141.915V72.9489C142.601 71.8916 143.815 71.363 145.503 71.363L145.486 71.3453Z" fill="white"/>
<path d="M155.106 75.6451V81.5659H152.872V80.3324C152.309 81.1959 151.219 81.6893 149.706 81.6893C147.402 81.6893 145.942 80.4205 145.942 78.6584C145.942 76.8962 147.068 75.6451 150.128 75.6451H152.731V75.4865C152.731 74.112 151.905 73.3014 150.216 73.3014C149.091 73.3014 147.912 73.6714 147.156 74.3058L146.224 72.5789C147.297 71.7507 148.862 71.3278 150.498 71.3278C153.4 71.3278 155.088 72.7022 155.088 75.6274L155.106 75.6451ZM152.749 78.4117V77.231H150.322C148.721 77.231 148.282 77.8301 148.282 78.5702C148.282 79.4161 149.003 79.98 150.199 79.98C151.395 79.98 152.362 79.4513 152.749 78.4117Z" fill="white"/>
<path d="M167.471 71.4687V80.0328C167.471 83.6981 165.571 85.3722 162.036 85.3722C160.154 85.3722 158.272 84.8787 157.129 83.9272L158.184 82.1474C159.064 82.8875 160.506 83.3633 161.895 83.3633C164.129 83.3633 165.096 82.3412 165.096 80.2971V79.7685C164.27 80.6672 163.074 81.1077 161.72 81.1077C158.835 81.1077 156.619 79.1341 156.619 76.2089C156.619 73.2837 158.818 71.3453 161.72 71.3453C163.144 71.3453 164.375 71.8035 165.22 72.8079V71.4687H167.471ZM165.149 76.2089C165.149 74.4996 163.865 73.3542 162.089 73.3542C160.313 73.3542 159.011 74.5172 159.011 76.2089C159.011 77.9006 160.295 79.0989 162.089 79.0989C163.883 79.0989 165.149 77.9182 165.149 76.2089Z" fill="white"/>
<path d="M179.236 77.2662H171.322C171.603 78.7464 172.834 79.6804 174.593 79.6804C175.719 79.6804 176.615 79.3279 177.337 78.5878L178.603 80.0504C177.706 81.1253 176.281 81.6892 174.54 81.6892C171.163 81.6892 168.982 79.5041 168.982 76.5085C168.982 73.5128 171.181 71.3453 174.188 71.3453C177.196 71.3453 179.289 73.4071 179.289 76.5613C179.289 76.7552 179.289 77.0371 179.254 77.2662H179.236ZM171.304 75.6979H177.02C176.827 74.2353 175.719 73.2309 174.171 73.2309C172.623 73.2309 171.533 74.2177 171.304 75.6979Z" fill="white"/>
<path d="M28.7344 121.938V123.703H35.6094V121.938H36.8281V127.484H32.7656V128.969H38.4844V129.984H25.8281V128.969H31.5469V127.484H27.5156V121.938H28.7344ZM28.7344 126.5H35.6094V124.672H28.7344V126.5ZM37.0781 133.938V134.969H27.4688V131.094H28.7031V133.938H37.0781ZM43.4844 122.031C45.3516 122.016 46.7656 123.102 47.0312 124.703H49.9375V121.375H51.1719V128.828H49.9375V125.719H47.0469C46.7969 127.359 45.3672 128.453 43.4844 128.453C41.375 128.453 39.875 127.141 39.875 125.234C39.875 123.344 41.375 122.016 43.4844 122.031ZM43.4844 123.078C42.0625 123.062 41.0469 123.953 41.0469 125.234C41.0469 126.5 42.0625 127.422 43.4844 127.422C44.8906 127.422 45.8906 126.5 45.8906 125.234C45.8906 123.953 44.8906 123.062 43.4844 123.078ZM43.4531 129.531V131.297H49.9375V129.531H51.1719V135.078H42.2188V129.531H43.4531ZM43.4531 134.078H49.9375V132.281H43.4531V134.078ZM65.3906 121.375V135.266H64.2031V121.375H65.3906ZM62.5938 121.672V134.562H61.4219V127.812H59.6406C59.5078 130.516 58.3594 132.203 56.6406 132.203C54.8281 132.203 53.6562 130.328 53.6562 127.375C53.6562 124.422 54.8281 122.547 56.6406 122.547C58.3281 122.547 59.4688 124.18 59.625 126.797H61.4219V121.672H62.5938ZM56.6406 123.703C55.5156 123.703 54.7969 125.109 54.8125 127.375C54.7969 129.625 55.5156 131.047 56.6406 131.031C57.7656 131.047 58.4844 129.625 58.4844 127.375C58.4844 125.109 57.7656 123.703 56.6406 123.703ZM74.3281 122.641V129.031H67.9062V122.641H74.3281ZM69.1094 123.641V128.047H73.1406V123.641H69.1094ZM78.1719 121.375V125.609H80.2656V126.641H78.1719V131.562H76.9531V121.375H78.1719ZM78.8125 133.938V134.969H69.4844V130.594H70.6875V133.938H78.8125ZM90.1562 123.672C90.1562 125.484 91.6719 127.094 93.7344 127.719L93.1094 128.688C91.4844 128.172 90.1797 127.055 89.5469 125.625C88.9375 127.156 87.625 128.352 85.9688 128.922L85.3281 127.953C87.4219 127.297 88.9219 125.578 88.9219 123.672V123.312H85.6719V122.312H93.3594V123.312H90.1562V123.672ZM96.625 121.375V128.891H95.4062V121.375H96.625ZM88.8438 129.578V131.266H95.4062V129.578H96.625V135.078H87.625V129.578H88.8438ZM88.8438 134.078H95.4062V132.25H88.8438V134.078ZM111.641 127.875V128.891H105.906V130.375C108.531 130.484 110.078 131.344 110.094 132.812C110.078 134.359 108.297 135.234 105.312 135.234C102.297 135.234 100.516 134.359 100.516 132.812C100.516 131.344 102.055 130.484 104.703 130.375V128.891H98.9844V127.875H111.641ZM105.312 131.312C103.078 131.328 101.75 131.875 101.766 132.812C101.75 133.734 103.078 134.281 105.312 134.281C107.516 134.281 108.859 133.734 108.859 132.812C108.859 131.875 107.516 131.328 105.312 131.312ZM110.516 122.031V123.031H106.109C106.188 124.594 108.484 125.805 110.938 126.062L110.484 127.031C108.211 126.758 106.078 125.742 105.312 124.188C104.555 125.742 102.43 126.758 100.141 127.031L99.7031 126.062C102.109 125.805 104.422 124.594 104.516 123.031H100.141V122.031H110.516ZM123.562 121.375V127.109H125.891V128.125H123.562V135.266H122.344V121.375H123.562ZM121 123.609V124.625H112.734V123.609H116.312V121.547H117.531V123.609H121ZM116.938 125.781C118.906 125.781 120.328 127.094 120.344 128.969C120.328 130.844 118.906 132.156 116.938 132.156C114.953 132.156 113.516 130.844 113.531 128.969C113.516 127.094 114.953 125.781 116.938 125.781ZM116.938 126.812C115.641 126.812 114.688 127.719 114.703 128.969C114.688 130.234 115.641 131.125 116.938 131.109C118.219 131.125 119.156 130.234 119.172 128.969C119.156 127.719 118.219 126.812 116.938 126.812ZM130.766 125.328C130.766 127.531 131.844 129.922 133.688 131.016L132.984 131.969C131.648 131.156 130.688 129.672 130.203 127.984C129.688 129.828 128.656 131.414 127.266 132.266L126.484 131.344C128.406 130.219 129.578 127.75 129.578 125.375V122.688H130.766V125.328ZM138.547 121.375V135.266H137.359V121.375H138.547ZM135.672 121.672V134.562H134.516V127.406H132.156V126.359H134.516V121.672H135.672ZM153.188 132.453V133.484H140.469V132.453H143.625V128.703C142.438 128.086 141.719 127.086 141.719 125.828C141.719 123.672 143.828 122.266 146.797 122.25C149.766 122.266 151.875 123.672 151.875 125.828C151.875 127.062 151.18 128.055 150.031 128.672V132.453H153.188ZM146.797 123.266C144.516 123.25 142.906 124.281 142.906 125.828C142.906 127.375 144.516 128.422 146.797 128.422C149.062 128.422 150.688 127.375 150.688 125.828C150.688 124.281 149.062 123.25 146.797 123.266ZM144.828 132.453H148.797V129.141C148.195 129.305 147.523 129.391 146.797 129.391C146.086 129.391 145.422 129.312 144.828 129.156V132.453ZM29.4688 146.25V147C29.4531 147.875 29.4531 149.125 29.0938 150.766L27.875 150.656C28.1953 149.188 28.2344 148.117 28.2344 147.281H22.5469V146.25H29.4688ZM25.8906 149.266V151.984C27.4375 151.938 29.0234 151.828 30.4688 151.641L30.5469 152.547C27.6406 153.016 24.3125 153.094 21.8125 153.094L21.6875 152.062C22.5938 152.062 23.6094 152.055 24.6719 152.031V149.266H25.8906ZM32.6562 145.375V149.188H34.6875V150.219H32.6562V154.062H31.4062V145.375H32.6562ZM28.1406 154.234C31.0156 154.234 32.7656 155.156 32.7656 156.703C32.7656 158.312 31.0156 159.219 28.1406 159.219C25.2656 159.219 23.5156 158.312 23.5156 156.703C23.5156 155.156 25.2656 154.234 28.1406 154.234ZM28.1406 155.188C26.0469 155.188 24.7344 155.766 24.75 156.703C24.7344 157.688 26.0469 158.25 28.1406 158.25C30.2344 158.25 31.5312 157.688 31.5312 156.703C31.5312 155.766 30.2344 155.188 28.1406 155.188ZM46.7344 146.781V148.172C46.7188 149.875 46.7188 151.781 46.2188 154.578L44.9688 154.438C45.5 151.781 45.5 149.828 45.5 148.172V147.797H36.9375V146.781H46.7344ZM48.25 156.281V157.297H35.5938V156.281H40.5625V151.312H41.7656V156.281H48.25ZM60.6562 149.594V150.578H51.1406V145.891H52.3594V149.594H60.6562ZM62.125 152.469V153.469H49.4062V152.469H62.125ZM60.7344 157.906V158.922H51.0625V154.891H52.2812V157.906H60.7344ZM78.7812 145.375V159.297H77.5469V151.453H74.5V150.438H77.5469V145.375H78.7812ZM72.0781 149.5C72.0781 151.812 73.7344 154.328 75.7656 155.25L75.0312 156.234C73.4453 155.461 72.1094 153.781 71.4844 151.844C70.8438 153.898 69.4766 155.68 67.8906 156.516L67.1406 155.562C69.1562 154.578 70.8281 151.969 70.8438 149.5V147.828H67.6719V146.812H75.2656V147.828H72.0781V149.5ZM92.4844 145.375V159.266H91.2656V145.375H92.4844ZM81.1719 155.469C83.8281 155.469 87.3125 155.453 90.3438 155.078L90.4375 155.984C87.3125 156.5 83.9531 156.531 81.3594 156.516L81.1719 155.469ZM89.9844 147.266V148.266H81.4688V147.266H85.1094V145.531H86.3594V147.266H89.9844ZM85.7344 149.031C87.7188 149.031 89.0625 150.062 89.0781 151.656C89.0625 153.219 87.7188 154.266 85.7344 154.25C83.7656 154.266 82.4062 153.219 82.4219 151.656C82.4062 150.062 83.7656 149.031 85.7344 149.031ZM85.7344 150C84.4531 150 83.5625 150.672 83.5625 151.656C83.5625 152.625 84.4531 153.297 85.7344 153.297C87.0156 153.297 87.9062 152.625 87.9062 151.656C87.9062 150.672 87.0156 150 85.7344 150ZM105.672 145.375V151.031H107.922V152.062H105.672V159.266H104.453V145.375H105.672ZM102.078 146.875C102.078 150.812 100.234 154.391 95.7031 156.625L95.0156 155.656C98.6094 153.867 100.562 151.195 100.844 147.906H95.6562V146.875H102.078ZM115.672 145.609V146.938H122.547V145.609H123.766V150.172H119.672V151.547H125.422V152.547H112.766V151.547H118.469V150.172H114.453V145.609H115.672ZM115.672 149.219H122.547V147.875H115.672V149.219ZM123.797 153.703V156.781H115.547V158.141H124.219V159.109H114.328V155.875H122.594V154.641H114.297V153.703H123.797ZM138.484 145.375V159.266H137.312V145.375H138.484ZM135.562 145.75V158.562H134.391V152.078H131.453C130.602 153.695 129.266 155.125 127.328 156.266L126.609 155.375C129.633 153.586 131.148 151.078 131.375 148.172H127.203V147.156H132.594C132.586 148.523 132.367 149.844 131.906 151.078H134.391V145.75H135.562ZM153.141 156.453V157.484H140.422V156.453H143.578V152.703C142.391 152.086 141.672 151.086 141.672 149.828C141.672 147.672 143.781 146.266 146.75 146.25C149.719 146.266 151.828 147.672 151.828 149.828C151.828 151.062 151.133 152.055 149.984 152.672V156.453H153.141ZM146.75 147.266C144.469 147.25 142.859 148.281 142.859 149.828C142.859 151.375 144.469 152.422 146.75 152.422C149.016 152.422 150.641 151.375 150.641 149.828C150.641 148.281 149.016 147.25 146.75 147.266ZM144.781 156.453H148.75V153.141C148.148 153.305 147.477 153.391 146.75 153.391C146.039 153.391 145.375 153.312 144.781 153.156V156.453ZM156.5 146.688L156.391 154.812H155.078L154.969 146.688H156.5ZM155.734 158.094C155.188 158.094 154.719 157.641 154.734 157.078C154.719 156.531 155.188 156.078 155.734 156.078C156.281 156.078 156.734 156.531 156.734 157.078C156.734 157.641 156.281 158.094 155.734 158.094Z" fill="white"/>
</svg>
