<svg width="20" height="20" viewBox="0 0 20 20" fill="none" xmlns="http://www.w3.org/2000/svg">
<path d="M9.28265 1.45307C9.51314 0.986133 9.62838 0.752663 9.78483 0.67807C9.92095 0.613169 10.0791 0.613169 10.2152 0.67807C10.3717 0.752663 10.4869 0.986133 10.7174 1.45307L12.9041 5.88304C12.9721 6.02089 13.0061 6.08982 13.0558 6.14333C13.0999 6.19071 13.1527 6.22911 13.2113 6.25638C13.2776 6.28718 13.3536 6.2983 13.5057 6.32053L18.397 7.03546C18.9121 7.11075 19.1696 7.14839 19.2888 7.27419C19.3925 7.38365 19.4412 7.53405 19.4215 7.68353C19.3988 7.85533 19.2124 8.03694 18.8395 8.40014L15.3014 11.8462C15.1912 11.9536 15.136 12.0073 15.1004 12.0712C15.0689 12.1278 15.0487 12.19 15.0409 12.2543C15.0321 12.3269 15.0451 12.4027 15.0711 12.5545L15.906 17.4219C15.994 17.9352 16.038 18.1919 15.9553 18.3443C15.8833 18.4768 15.7554 18.5697 15.6071 18.5972C15.4366 18.6288 15.2061 18.5076 14.7451 18.2652L10.3724 15.9656C10.2361 15.8939 10.168 15.8581 10.0962 15.844C10.0327 15.8316 9.96734 15.8316 9.90379 15.844C9.83202 15.8581 9.7639 15.8939 9.62766 15.9656L5.25492 18.2652C4.79392 18.5076 4.56341 18.6288 4.39297 18.5972C4.24468 18.5697 4.11672 18.4768 4.04474 18.3443C3.962 18.1919 4.00603 17.9352 4.09407 17.4219L4.92889 12.5545C4.95491 12.4027 4.96793 12.3269 4.95912 12.2543C4.95132 12.19 4.93111 12.1278 4.89961 12.0712C4.86402 12.0073 4.80888 11.9536 4.69859 11.8462L1.16056 8.40014C0.787663 8.03694 0.601215 7.85533 0.578526 7.68353C0.558786 7.53405 0.607554 7.38365 0.711251 7.27419C0.830435 7.14839 1.08797 7.11075 1.60304 7.03546L6.49431 6.32053C6.64642 6.2983 6.72248 6.28718 6.78872 6.25638C6.84736 6.22911 6.90016 6.19071 6.94419 6.14333C6.99391 6.08982 7.02793 6.02089 7.09597 5.88304L9.28265 1.45307Z" stroke="#BDBDBD" stroke-linecap="round" stroke-linejoin="round"/>
</svg>
