<svg width="21" height="12" viewBox="0 0 21 12" fill="none" xmlns="http://www.w3.org/2000/svg">
<rect x="0.5" y="0.5" width="20" height="11" rx="1.5" stroke="#161616"/>
<path d="M3.27344 3.34375L4.74219 7.80469H4.80469L6.28125 3.34375H7.39844L5.39844 9H4.14844L2.15625 3.34375H3.27344ZM8.07031 9V3.34375H10.1953C11.4922 3.34375 12.1875 4.13281 12.1875 5.21875C12.1875 6.30469 11.4844 7.08594 10.1797 7.08594H9.08594V9H8.07031ZM9.08594 6.25H10.0391C10.8047 6.25 11.1484 5.82031 11.1484 5.21875C11.1484 4.60938 10.8047 4.19531 10.0391 4.19531H9.08594V6.25ZM17.6562 3.34375V9H16.75L14.0703 5.13281H14.0234V9H13.0078V3.34375H13.9297L16.5938 7.21094H16.6484V3.34375H17.6562Z" fill="#161616"/>
</svg>
