<svg width="443" height="266" viewBox="0 0 443 266" fill="none" xmlns="http://www.w3.org/2000/svg">
<rect x="0.5" y="0.5" width="442" height="265" rx="11.5" fill="#A3A3A3"/>
<rect x="0.5" y="0.5" width="442" height="265" rx="11.5" stroke="#E2E2E2"/>
<g opacity="0.47" clip-path="url(#clip0_3838_33317)">
<path fill-rule="evenodd" clip-rule="evenodd" d="M196.316 111.756C195.228 110.668 195.228 108.904 196.316 107.816C197.404 106.728 199.168 106.728 200.256 107.816L206.868 114.429H228.929C232.006 114.429 234.5 116.923 234.5 120V122.755L242.323 119.402C244.773 118.352 247.5 120.15 247.5 122.816V143.184C247.5 145.85 244.773 147.648 242.323 146.598L236.573 144.133L246.684 154.245C247.772 155.333 247.772 157.096 246.684 158.184C245.596 159.272 243.833 159.272 242.745 158.184L196.316 111.756ZM195.5 120C195.5 119.26 195.644 118.554 195.906 117.908L229.537 151.538C229.337 151.56 229.134 151.571 228.929 151.571H201.071C197.994 151.571 195.5 149.077 195.5 146V120Z" fill="white"/>
</g>
<defs>
<clipPath id="clip0_3838_33317">
<rect width="52" height="52" fill="white" transform="translate(195.5 107)"/>
</clipPath>
</defs>
</svg>
