<svg width="44" height="44" viewBox="0 0 44 44" fill="none" xmlns="http://www.w3.org/2000/svg">
<path d="M5 11.382C5 10.1844 5 9.58552 5.23678 9.12971C5.43631 8.74559 5.7495 8.4324 6.13361 8.23287C6.58943 7.99609 7.18827 7.99609 8.38595 7.99609H17.2239C17.7334 7.99609 17.9881 7.99609 18.2284 8.05331C18.4326 8.10195 18.6284 8.1809 18.8093 8.28754C19.022 8.41297 19.2055 8.58968 19.5725 8.94308L19.7897 9.15219C20.1567 9.50559 20.3402 9.68229 20.5529 9.80772C20.7338 9.91436 20.9296 9.99332 21.1338 10.042C21.3741 10.0992 21.6288 10.0992 22.1383 10.0992H31.0571C32.2548 10.0992 32.8537 10.0992 33.3095 10.3359C33.6936 10.5355 34.0068 10.8487 34.2063 11.2328C34.4431 11.6886 34.4431 12.2874 34.4431 13.4851V33.6431C34.4431 34.242 34.4431 34.5414 34.3247 34.7693C34.2249 34.9613 34.0683 35.1179 33.8763 35.2177C33.6484 35.3361 33.3489 35.3361 32.7501 35.3361H8.04735C6.96944 35.3361 6.43049 35.3361 6.02025 35.123C5.67455 34.9434 5.39268 34.6616 5.2131 34.3158C5 33.9056 5 33.3667 5 32.2887V11.382Z" fill="url(#paint0_linear_962_75623)"/>
<foreignObject x="2.89736" y="11.1532" width="39.551" height="28.3928"><div xmlns="http://www.w3.org/1999/xhtml" style="backdrop-filter:blur(2.1px);clip-path:url(#bgblur_0_962_75623_clip_path);height:100%;width:100%"></div></foreignObject><path data-figma-bg-blur-radius="4.20615" d="M15.625 15.457H35.0205C35.8621 15.457 36.4833 15.4576 36.9492 15.5244C37.4124 15.5909 37.7038 15.7211 37.9023 15.9658C38.1009 16.2106 38.1681 16.5224 38.1377 16.9893C38.1071 17.4589 37.979 18.0662 37.8057 18.8896L34.8398 32.9805C34.7215 33.5428 34.6346 33.9564 34.5273 34.2705C34.421 34.5818 34.2981 34.7851 34.1152 34.9336C33.9322 35.0821 33.7076 35.1603 33.3809 35.2002C33.0514 35.2404 32.6293 35.2402 32.0547 35.2402H7.31738C7.78141 34.6859 8.03558 34.1111 8.28516 33.2969C8.42173 32.8513 8.55794 32.3312 8.72754 31.7041C8.89738 31.0761 9.10158 30.3378 9.37305 29.4521C10.1538 26.9049 11.9425 20.7723 12.8906 17.5107C13.0399 16.9971 13.1498 16.62 13.2705 16.334C13.3902 16.0503 13.517 15.8656 13.6943 15.7324C13.8716 15.5995 14.0841 15.5298 14.3896 15.4941C14.6979 15.4581 15.0904 15.457 15.625 15.457Z" fill="#B9DDFF" fill-opacity="0.6" stroke="url(#paint1_linear_962_75623)" stroke-width="0.196252"/>
<path d="M10.2588 10.1758H14.4648C15.0022 10.1758 15.4375 10.6121 15.4375 11.1494C15.4374 11.6867 15.0021 12.122 14.4648 12.1221H10.2588C9.72147 12.1221 9.28527 11.6867 9.28516 11.1494C9.28516 10.612 9.7214 10.1758 10.2588 10.1758Z" fill="url(#paint2_linear_962_75623)" fill-opacity="0.9" stroke="url(#paint3_linear_962_75623)" stroke-width="0.157002"/>
<defs>
<clipPath id="bgblur_0_962_75623_clip_path" transform="translate(-2.89736 -11.1532)"><path d="M15.625 15.457H35.0205C35.8621 15.457 36.4833 15.4576 36.9492 15.5244C37.4124 15.5909 37.7038 15.7211 37.9023 15.9658C38.1009 16.2106 38.1681 16.5224 38.1377 16.9893C38.1071 17.4589 37.979 18.0662 37.8057 18.8896L34.8398 32.9805C34.7215 33.5428 34.6346 33.9564 34.5273 34.2705C34.421 34.5818 34.2981 34.7851 34.1152 34.9336C33.9322 35.0821 33.7076 35.1603 33.3809 35.2002C33.0514 35.2404 32.6293 35.2402 32.0547 35.2402H7.31738C7.78141 34.6859 8.03558 34.1111 8.28516 33.2969C8.42173 32.8513 8.55794 32.3312 8.72754 31.7041C8.89738 31.0761 9.10158 30.3378 9.37305 29.4521C10.1538 26.9049 11.9425 20.7723 12.8906 17.5107C13.0399 16.9971 13.1498 16.62 13.2705 16.334C13.3902 16.0503 13.517 15.8656 13.6943 15.7324C13.8716 15.5995 14.0841 15.5298 14.3896 15.4941C14.6979 15.4581 15.0904 15.457 15.625 15.457Z"/>
</clipPath><linearGradient id="paint0_linear_962_75623" x1="13.4932" y1="13.9767" x2="35.7093" y2="22.2043" gradientUnits="userSpaceOnUse">
<stop stop-color="#7FC0FB"/>
<stop offset="1" stop-color="#4088F4"/>
</linearGradient>
<linearGradient id="paint1_linear_962_75623" x1="5.52621" y1="16.7865" x2="16.6773" y2="43.6772" gradientUnits="userSpaceOnUse">
<stop stop-color="white"/>
<stop offset="0.765625" stop-color="white" stop-opacity="0"/>
</linearGradient>
<linearGradient id="paint2_linear_962_75623" x1="8.72752" y1="9.95713" x2="17.3626" y2="12.5084" gradientUnits="userSpaceOnUse">
<stop stop-color="white"/>
<stop offset="1" stop-color="white" stop-opacity="0"/>
</linearGradient>
<linearGradient id="paint3_linear_962_75623" x1="8.13876" y1="10.5459" x2="12.3616" y2="12.2007" gradientUnits="userSpaceOnUse">
<stop stop-color="white"/>
<stop offset="1" stop-color="white" stop-opacity="0"/>
</linearGradient>
</defs>
</svg>
